<svg width="274.638916" height="43.776001" viewBox="0 0 274.639 43.776" fill="none" xmlns="http://www.w3.org/2000/svg" xmlns:xlink="http://www.w3.org/1999/xlink">
	<desc>
			Created with Pixso.
	</desc>
	<defs>
		<clipPath id="clip1_231">
			<rect id="2" width="274.000000" height="39.000000" transform="translate(0.000000 4.781982) rotate(-1.000000)" fill="white" fill-opacity="0"/>
		</clipPath>
	</defs>
	<rect id="2" width="274.000000" height="39.000000" transform="translate(0.000000 4.781982) rotate(-1.000000)" fill="#FFFFFF" fill-opacity="0"/>
	<g clip-path="url(#clip1_231)">
		<path id="Vector" d="M21.0728 4.82471C19.8215 5.60291 19.5968 6.23352 19.5593 9.00024L19.5385 11.4857L17.9185 12.0111C15.5953 12.7864 13.1577 14.3632 11.3475 16.2749C9.51636 18.2085 8.41418 20.151 7.64282 22.6281L7.0752 24.4963L4.93225 24.5338C2.36072 24.5786 1.33923 25.0071 0.717407 26.2281C0.177612 27.2316 0.356201 28.8708 1.09888 29.6575C2.03723 30.6135 2.68396 30.8182 5.06262 30.7767L7.2699 30.7383L7.65649 32.0065C9.22632 37.2087 13.5009 41.3912 18.8009 42.9194C20.4601 43.4092 24.1276 43.5181 26.0077 43.161C32.2885 41.9277 37.1982 37.0662 38.651 30.6443C39.3459 27.4772 38.7067 22.7773 37.1549 19.8439C35.1147 15.9464 31.006 12.6686 26.8512 11.6606L25.7749 11.3984L25.7334 9.02209C25.6991 7.05627 25.6257 6.53882 25.229 5.91907C24.303 4.44421 22.4506 3.93628 21.0728 4.82471ZM26.2753 17.9592C30.6105 19.4827 33.5481 24.4448 32.7246 28.8461C31.8256 33.832 28.0452 37.0747 23.1162 37.1608C18.8088 37.236 15.3593 34.8759 13.7444 30.7765C13.0702 28.9946 13.0184 26.035 13.6298 24.2091C15.5089 18.8818 21.0553 16.1053 26.2753 17.9592Z" fill="#FFFFFF" fill-opacity="1.000000" fill-rule="nonzero"/>
		<path id="Vector" d="M20.7385 21.2975C19.1407 21.8656 17.2888 23.8428 16.8452 25.4497C16.1405 28.0552 16.6685 30.0557 18.566 31.9242C19.6128 32.9432 20.1327 33.2583 21.1663 33.5212C24.2032 34.3542 27.2654 32.9393 28.694 30.0403C29.1495 29.1248 29.2262 28.6047 29.2025 27.2438C29.1689 25.321 28.5432 23.8624 27.2363 22.6752C25.5148 21.0629 22.8901 20.5251 20.7385 21.2975ZM23.9296 26.0392C24.7563 26.7379 24.7762 27.8828 23.9958 28.6096C23.679 28.8744 23.212 29.1418 22.9548 29.1464C22.3549 29.1569 21.1769 27.9889 21.1663 27.384C21.1558 26.7791 22.2922 25.5707 22.8922 25.5602C23.1494 25.5558 23.6246 25.7635 23.9296 26.0392ZM218.524 1.24866C217.44 1.76465 216.921 2.72449 216.946 4.17188C216.966 5.29529 217.033 5.48865 217.731 6.14636C219.105 7.50537 221.011 7.38574 222.292 5.87219C223.489 4.42505 223.023 2.29382 221.334 1.35083C220.361 0.849243 219.503 0.820923 218.524 1.24866ZM72.2314 9.18311L72.2997 13.0933L68.0995 13.1666L68.193 18.5243L72.3717 18.4513L72.5869 27.0916C72.7899 35.0404 72.8464 35.8174 73.2445 36.5236C73.9312 37.7866 74.9974 38.6971 76.27 39.1504C77.6724 39.6661 81.5562 39.8793 83.8878 39.601L85.3634 39.4022L85.2609 33.5261L83.269 33.6257C81.4058 33.7231 81.2554 33.7041 80.7102 33.1733L80.1432 32.6215L79.8936 18.3199L85.0154 18.2306L84.905 15.5961L84.8165 12.9829L82.3296 12.9614L79.8212 12.9404L79.7112 9.0957L79.5797 5.25146L75.8927 5.25098L72.1632 5.27283L72.2314 9.18311ZM139.753 21.2946L140.053 38.4692L147.574 38.338L146.974 3.96704L139.453 4.09839L139.753 21.2946ZM6.3739 10.1166C5.24841 10.7196 4.74878 11.5712 4.7699 12.7809C4.79443 14.1852 5.30237 15.0406 6.36218 15.5841C7.854 16.3143 9.07068 16.0122 10.2041 14.631C11.3372 13.2281 10.7179 10.9052 8.98877 10.0925C8.05933 9.65491 7.245 9.66907 6.3739 10.1166ZM53.3264 12.9707C47.5317 13.8065 44.3333 17.2335 44.8456 22.022C45.0021 23.6184 45.645 24.839 46.8639 25.8982C48.2358 27.1276 49.6387 27.6649 54.4811 28.7689C59.2814 29.917 60.4688 30.3933 61.0004 31.3781C62.196 33.5614 59.6167 35.6161 56.033 35.3977C53.6295 35.2452 52.1752 34.2117 51.6716 32.3837L51.4871 31.6305L47.9714 31.6271L44.4773 31.6232L44.6281 32.8956C44.8297 34.6208 45.7369 36.2474 47.1533 37.5625C49.4844 39.7043 52.092 40.5017 56.657 40.4436C60.0432 40.4061 61.881 40.0714 63.8359 39.0865C67.0879 37.4955 68.7349 34.8303 68.6737 31.3306C68.6379 29.2782 68.2555 28.2476 67.1411 27.0353C65.5022 25.2487 63.6028 24.5039 57.7509 23.2878C53.642 22.4519 52.343 21.7183 52.3177 20.2709C52.2905 18.7153 53.3715 18.005 55.9215 17.9604C58.6646 17.9126 60.158 18.7294 60.6171 20.4717L60.778 21.0956L67.807 20.9729L67.6617 20.0245C67.1105 16.6847 64.4508 14.1379 60.576 13.2114C58.8756 12.809 55.2938 12.6986 53.3264 12.9707Z" fill="#FFFFFF" fill-opacity="1.000000" fill-rule="nonzero"/>
		<path id="Vector" d="M95.7577 12.2516C93.9832 12.5203 92.132 13.309 90.4376 14.4839C86.7097 17.0557 84.788 21.1735 84.8789 26.3799C84.9935 32.9474 88.4857 37.7487 94.3447 39.3751C96.219 39.9043 100.676 39.8265 102.51 39.2327C105.942 38.1355 108.117 36.2606 109.606 33.166C110.95 30.3333 111.038 30.4614 107.266 30.5272L104.073 30.583L103.763 31.1935C103.307 32.109 102.358 32.99 101.231 33.5067C100.083 34.067 97.5127 34.1982 96.1122 33.7905C94.2166 33.2617 92.7683 31.3422 92.4264 28.9495L92.2791 27.8715L101.643 27.6648L110.985 27.4369L110.907 25.4286C110.517 16.5537 104.008 10.8759 95.7577 12.2516ZM100.45 18.2421C101.639 18.848 102.804 20.5133 103.154 22.1063L103.316 22.8167L92.2371 23.01L92.4347 22.0557C92.8501 20.0603 94.2178 18.5886 96.2013 18.0137C97.1393 17.7164 99.7146 17.8876 100.45 18.2421ZM123.294 11.7278C117.909 12.6862 113.989 16.5146 112.65 22.1134C112.229 23.8064 112.319 27.6946 112.802 29.5662C113.977 34.2567 117.208 37.6362 121.796 38.896C123.692 39.4247 128.171 39.3682 129.961 38.775C132.903 37.8376 134.936 36.376 136.27 34.2133C136.875 33.252 138.134 30.4639 138.127 30.0966C138.126 30.0533 136.647 30.036 134.826 30.0677C131.718 30.1221 131.504 30.1473 131.383 30.5817C131.181 31.2767 129.238 32.953 128.258 33.2727C127.789 33.4321 126.655 33.5599 125.755 33.5757C122.369 33.6348 120.454 32.0043 119.923 28.5991L119.753 27.4352L138.504 27.1079L138.477 25.5956C138.344 19.2014 134.645 13.6041 129.474 12.0953C127.88 11.6261 124.897 11.462 123.294 11.7278ZM127.88 17.7633C129.113 18.3901 130.123 19.7771 130.625 21.4972L130.854 22.3359L119.839 22.5282L119.829 22.0098C119.825 21.7289 120.068 20.925 120.42 20.249C121.041 18.9415 122.266 17.8829 123.545 17.5148C124.569 17.2377 127.123 17.4092 127.88 17.7633ZM157.433 11.175C153.456 11.7848 150.553 13.6938 149.463 16.3708C148.95 17.6549 149.06 20.2893 149.706 21.7043C150.353 23.1409 151.791 24.4556 153.627 25.288C154.384 25.6421 156.775 26.2919 158.905 26.7517C161.035 27.2115 163.188 27.7358 163.727 27.921C165.884 28.7045 166.761 31.0231 165.435 32.4292C164.614 33.2648 162.844 33.8143 160.744 33.851C157.679 33.9044 155.731 32.8363 155.096 30.7944L154.8 29.8271L151.734 29.8159L148.669 29.8046L148.84 30.9901C149.375 34.6328 152.254 37.4783 156.408 38.4215C158.001 38.8043 163.015 38.7168 164.594 38.2786C167.901 37.3997 170.503 35.431 171.533 33.0359C172.254 31.3594 172.229 28.6586 171.451 27.073C170.072 24.2445 167.953 23.1794 160.854 21.769C157.864 21.173 156.419 20.6364 155.719 19.849C155.106 19.1249 154.982 18.1763 155.376 17.3699C155.791 16.5846 157.431 15.9725 159.423 15.9161C162.294 15.8444 163.937 16.6368 164.483 18.421L164.733 19.2594L171.098 19.1483L170.933 18.3085C170.484 15.896 168.662 13.4642 166.391 12.2721C164.313 11.163 160.511 10.7107 157.433 11.175ZM183.148 10.7046C178.553 11.5195 174.823 15.1503 173.368 20.254C172.741 22.4043 172.777 26.9202 173.416 29.1565C174.809 34.016 178.122 37.1565 182.854 38.0895C185.887 38.6849 189.522 38.1244 192.283 36.65C193.493 36.0022 195.642 33.8684 196.328 32.6464C196.745 31.9259 197.686 29.3811 197.68 29.0355C197.68 29.0139 196.393 28.9932 194.829 29.0204L191.979 29.0702L191.503 30.0725C190.883 31.4016 189.364 32.7896 188.126 33.1136C186.867 33.4381 184.532 33.4789 183.562 33.1718C181.751 32.5983 180.05 30.964 179.506 29.2446C179.37 28.8148 179.183 27.9537 179.065 27.3075L178.873 26.1439L197.838 25.8129L197.957 25.2273C198.135 24.4031 197.849 21.5123 197.393 19.9427C196.204 15.7063 192.862 12.1342 189.027 11.0126C187.326 10.5669 184.836 10.4158 183.148 10.7046ZM188.173 16.1058C188.756 16.355 189.495 16.9255 189.823 17.3304C190.567 18.1818 191.39 19.9178 191.647 21.1019L191.811 21.9418L178.889 22.1674L178.979 21.1934C179.16 19.267 180.896 16.7731 182.555 16.0526C184.364 15.2646 186.508 15.2921 188.173 16.1058ZM235.971 9.71777C230.947 10.4753 227.025 14.2175 225.639 19.5577C225.057 21.8369 225.107 25.9203 225.749 28.3079C226.619 31.491 228.267 33.796 230.718 35.4172C233.081 36.9319 234.61 37.3374 237.889 37.3018C240.911 37.2706 242.086 37.0341 244.146 35.9392C245.909 35.0223 247.007 34.0308 248.094 32.4559C248.888 31.2751 249.918 28.9232 249.908 28.2968C249.905 28.1671 248.747 28.101 247.097 28.1298L244.268 28.1791L243.646 29.4218C242.59 31.5146 240.913 32.4731 238.17 32.5211C235.641 32.5436 233.977 31.7731 232.723 29.9581C231.932 28.8267 231.302 27.1088 231.282 25.9855L231.27 25.2726L250.299 24.9403L250.265 22.9745C250.12 14.6787 243.519 8.59192 235.971 9.71777ZM240.071 14.9622C241.906 15.6865 243.487 17.8199 243.912 20.0815L244.079 21.0295L231.199 21.2543L231.19 20.6926C231.173 19.7637 231.975 17.7832 232.793 16.7748C234.473 14.7358 237.588 13.9467 240.071 14.9622ZM260.059 9.36206C255.827 10.041 252.902 11.929 251.898 14.6261C251.508 15.6053 251.561 18.6083 251.985 19.5732C252.857 21.6758 254.555 23.1157 257.034 23.9368C257.767 24.1833 259.898 24.6864 261.77 25.0859C266.654 26.1244 268.103 26.8339 268.43 28.3624C268.922 30.7742 266.738 32.1737 262.706 32.0496C259.489 31.9545 257.971 30.9437 257.35 28.5558L257.211 27.9531L251.19 28.0582L251.361 29.3086C251.851 32.7793 254.254 35.3522 258.11 36.4734C259.403 36.8615 260.241 36.9332 262.791 36.8887C266.284 36.8494 267.544 36.5896 269.882 35.4252C271.008 34.8652 271.791 34.2681 272.632 33.3242C274.146 31.6122 274.613 30.1345 274.442 27.7172C274.3 25.7316 273.81 24.6813 272.48 23.4078C270.997 21.9426 269.314 21.3021 264.387 20.2644C260.428 19.4475 259.393 19.0983 258.458 18.3149C257.805 17.7645 257.694 17.5071 257.68 16.7294C257.661 15.6709 257.913 15.3423 259.188 14.6718C260.249 14.0914 263.571 14.0334 264.888 14.5723C265.989 15.0068 266.841 15.9213 267.072 16.868L267.233 17.5352L273.448 17.4266L273.279 16.3491C272.772 13.0948 269.764 10.2516 266 9.53931C264.344 9.17932 261.599 9.11914 260.059 9.36206ZM217.21 10.6935C217.126 10.7814 217.166 16.7667 217.292 24.0038L217.521 37.1171L223.5 37.0127L223.227 23.7921L222.932 10.5936L220.145 10.5775C218.601 10.5612 217.295 10.6272 217.21 10.6935ZM199.355 24.2737L199.584 37.4302L205.521 37.3265L205.463 29.1157L205.384 20.9054L205.922 19.7938C206.916 17.7667 209.084 16.7565 213.235 16.295L214.711 16.1396L214.617 10.7604L212.241 10.9099C209.478 11.0878 208.072 11.5662 206.146 12.9828L204.918 13.8687L204.868 10.9954L199.103 11.0961L199.333 24.274L199.355 24.2737Z" fill="#FFFFFF" fill-opacity="1.000000" fill-rule="nonzero"/>
	</g>
</svg>
