<svg width="255.798874" height="52.442993" viewBox="0 0 255.799 52.443" fill="none" xmlns="http://www.w3.org/2000/svg" xmlns:xlink="http://www.w3.org/1999/xlink">
	<desc>
			Created with Pixso.
	</desc>
	<defs/>
	<path id="image 17 (Traced)" d="M0.0953918 4.93872C0.00763369 5.17969 0.1183 12.8191 0.34169 21.9148C0.70634 36.7538 0.808002 38.6266 1.3329 40.1479C3.33237 45.9431 7.6386 50.0416 13.3423 51.578C15.7625 52.2299 20.0064 52.1558 22.4024 51.4199C28.5598 49.5284 32.9561 44.5254 34.2424 37.9452C34.3668 37.3094 34.5956 37.0862 35.132 37.0768C36.3514 37.0555 39.4149 35.8011 41.1351 34.6187C45.3941 31.6913 48.129 27.0199 48.5748 21.9115C49.2602 14.0603 43.5723 6.22266 35.8331 4.354C33.2054 3.71936 0.34385 4.25696 0.0953918 4.93872ZM67.7609 26.1174L68.045 42.395L71.6169 42.3326L75.1887 42.2704L75.094 36.8445L74.9993 31.4186L77.6241 31.3728C83.7879 31.2653 87.5136 29.2695 89.6922 24.9091C90.4394 23.4132 90.5217 22.9155 90.481 20.1383C90.442 17.46 90.3282 16.8301 89.6465 15.5137C88.1042 12.535 85.1831 10.5775 81.3246 9.93713C80.3079 9.76843 76.776 9.67749 73.4762 9.73511L67.4768 9.83984L67.7609 26.1174ZM114.66 25.2886L114.945 41.5764L118.509 41.5142L122.072 41.452L122.075 36.7223L122.079 31.9924L125.267 36.6597L128.455 41.3267L137.033 41.1769C137.033 41.1769 135.255 38.1199 133.27 35.311C131.284 32.5021 129.657 30.075 129.654 29.9172C129.652 29.7594 130.644 28.2307 131.86 26.5199C133.075 24.809 134.514 22.7388 135.057 21.9188L136.043 20.4285L131.708 20.5042L127.372 20.5798L126.086 22.6958C125.378 23.8594 124.176 25.7996 123.415 27.0068L122.03 29.202L121.699 19.1282L121.368 9.0542L117.872 9.02747L114.376 9.00073L114.66 25.2886ZM188.401 13.6277L188.504 19.5245L187.646 19.301C187.173 19.1781 185.739 19.1119 184.458 19.1538C181.328 19.2562 178.934 20.2352 176.863 22.2604C174.705 24.3705 173.945 26.2817 173.836 29.8813C173.68 35.0194 175.207 37.96 178.989 39.8053C180.739 40.6593 181.409 40.8176 183.186 40.7968C185.167 40.774 185.983 40.5216 188.613 39.1176C188.74 39.0496 188.849 39.2849 188.855 39.6403C188.866 40.2557 189.028 40.2833 192.283 40.2264L195.699 40.1669L195.415 23.8892L195.131 7.61157L191.715 7.67126L188.298 7.73083L188.401 13.6277ZM34.7667 13.7129C36.6549 14.6826 37.7052 15.761 38.6218 17.6707C39.296 19.0753 39.4241 19.7008 39.3102 21.0287C39.1489 22.9097 38.3526 24.7087 37.1157 25.9874C35.4436 27.7158 34.7482 27.9225 29.7375 28.1768L25.0813 28.4131L25.0044 32.9116C24.9217 37.7653 24.6273 38.8969 23.0157 40.5629C20.7689 42.8856 17.0666 43.5184 14.1267 42.0826C12.2468 41.1646 10.7143 39.1412 10.1874 36.8817C9.64333 34.5481 9.33292 14.2015 9.8334 13.6829C10.1288 13.3768 12.8426 13.2632 21.8638 13.1782C33.0921 13.0729 33.5579 13.0923 34.7667 13.7129ZM79.8219 16.739C81.4694 17.0906 82.4685 18.0811 82.7258 19.6179C83.2683 22.8557 80.852 24.7771 76.7316 24.3844L74.8734 24.2075L74.8095 20.5474L74.7457 16.8875L75.5975 16.7433C77.147 16.4814 78.6063 16.4799 79.8219 16.739ZM97.9618 20.8872C92.0269 22.5348 88.803 27.652 89.949 33.6053C90.6702 37.3517 92.7636 39.9851 96.2657 41.5504C97.8533 42.2599 98.3749 42.33 101.597 42.264C104.782 42.1992 105.352 42.1012 106.863 41.3571C109.253 40.1809 110.984 38.506 111.96 36.4255C112.719 34.8082 112.795 34.3187 112.745 31.3502C112.692 28.2057 112.641 27.975 111.565 25.9573C110.275 23.5371 108.735 22.2396 106.009 21.2755C103.79 20.4906 100.042 20.3097 97.9618 20.8872ZM144.24 20.0825C139.072 21.5225 136.251 25.7225 136.352 30.968C136.518 39.5247 145.765 43.0001 153.056 40.6444C154.701 39.9883 155.955 39.4106 155.955 39.4106C155.955 39.4106 155.193 37.7885 154.749 36.6873C154.036 34.9138 153.849 34.4851 153.849 34.4851C153.849 34.4851 150.462 35.6586 148.599 35.7029C146.146 35.7615 144.503 35.127 143.363 33.0166L150.345 32.8948L157.327 32.7728L157.517 31.6565C157.836 29.7798 157.398 26.5275 156.633 25.095C154.363 20.8422 149.122 18.7223 144.24 20.0825ZM206.286 18.8888C200.574 20.2062 197.209 24.9663 197.809 30.8802C198.209 34.8236 200.545 37.964 204.335 39.6548C205.92 40.3616 206.483 40.441 209.529 40.3892C212.72 40.335 213.081 40.2642 214.997 39.3168C219.06 37.3074 220.878 34.24 220.816 29.4937C220.768 25.8013 220.041 23.9553 217.774 21.7693C216.517 20.5577 215.471 19.8754 214.162 19.4122C212.082 18.6766 208.297 18.425 206.286 18.8888ZM167.628 20.5629C166.701 21.2347 166.8 19.9778 166.8 19.9778C166.8 19.9778 166.592 19.8953 163.345 19.9519L159.929 20.0116L160.11 30.3982L160.292 40.7849L163.708 40.7252L167.125 40.6656L167.011 34.134C166.946 30.4064 167.025 27.3538 167.195 27.0223C167.69 26.0591 169.34 25.6553 170.799 26.1407L172.049 26.5565L173.154 23.4C174.189 20.4459 174.225 20.2191 173.71 19.8572C172.135 18.7484 169.099 19.4962 167.628 20.5629ZM232.846 18.87C232.211 19.1086 231.333 19.5477 230.894 19.8456C230.487 20.1226 229.418 20.7603 229.418 20.7603L229.383 18.7787C229.383 18.7787 223.987 18.9062 222.669 18.896L222.85 29.3031L223.032 39.7102L226.464 39.5625L229.896 39.4149L229.805 33.1326C229.722 27.4023 229.766 26.7825 230.303 26.0756C231.038 25.1084 231.834 24.905 233.373 24.8782C234.391 24.8605 236.335 25.4427 236.356 26.687C236.378 27.9312 236.579 39.4532 236.579 39.4532L239.514 39.4021L243.19 39.3379L242.995 28.1218C242.995 28.1218 242.848 26.1389 243.612 25.3157C244.243 24.6354 247.132 24.4713 247.982 25.2394C248.832 26.0076 248.649 28.0231 248.649 28.0231L248.845 39.2391L252.245 39.1798L255.644 39.1205L255.51 31.4186C255.361 22.921 255.111 21.4507 253.539 19.8607C252.287 18.5936 250.861 18.1135 248.483 18.1588C246.238 18.201 243.838 19.1334 242.767 20.3784L242.191 21.0487L240.996 20.0089C240.339 19.4366 239.265 18.8302 238.609 18.6605C236.991 18.2424 234.25 18.342 232.846 18.87ZM150.789 28.2349L143.49 28.3622C143.49 28.3622 144.062 25.5774 147.132 25.5238C150.067 25.4725 150.789 28.2349 150.789 28.2349ZM103.421 27.4985C106.02 29.0188 106.368 32.8505 104.094 34.9144C102.051 36.7697 98.9675 36.1229 97.6723 33.567C95.6716 29.618 99.7271 25.337 103.421 27.4985ZM187.709 25.8979L188.644 26.3601L188.614 29.6814L188.584 33.0027L187.199 33.7439C183.166 35.9025 179.575 31.7245 181.778 27.4374C182.672 25.6978 185.709 24.9093 187.709 25.8979ZM211.454 25.6301C213.999 27.1399 214.239 31.4045 211.887 33.3192C210.802 34.2015 208.566 34.2825 207.209 33.4883C205.343 32.3966 204.585 29.408 205.651 27.3439C206.763 25.1904 209.4 24.4115 211.454 25.6301ZM41.8574 40.9724C39.607 41.7343 37.9504 44.0298 37.9906 46.3312C38.0526 49.8838 41.6556 52.4956 45.0836 51.4724C48.7502 50.3784 50.2246 46.2073 48.0573 43.0591C46.8185 41.2595 43.9055 40.2792 41.8574 40.9724Z" fill="#FFFFFF" fill-opacity="1.000000" fill-rule="evenodd"/>
</svg>
