<svg width="372.885742" height="60.484131" viewBox="0 0 372.886 60.4841" fill="none" xmlns="http://www.w3.org/2000/svg" xmlns:xlink="http://www.w3.org/1999/xlink">
	<desc>
			Created with Pixso.
	</desc>
	<defs/>
	<path id="image 15 (Traced)" d="M11.4983 6.37085C11.2633 6.61279 11.4175 6.77332 12.5678 7.48523C14.5206 8.6936 15.7281 10.4576 16.1615 12.7344C16.4081 14.0302 16.1923 15.8339 15.6616 16.9143L15.3254 17.5989L16.084 18.4711C17.103 19.6429 17.4058 20.129 17.8173 21.2543C18.2573 22.4572 18.3334 24.4531 17.9877 25.7168C17.4398 27.7205 15.8196 29.61 13.8145 30.5844C12.3857 31.2787 11.062 31.4307 5.61865 31.5256C2.07385 31.5875 0.522949 31.6715 0.442505 31.806C0.288818 32.0631 28.963 59.5962 29.2159 59.4346C29.3516 59.3479 29.3582 56.6279 29.2391 49.8055L29.0731 40.2974L25.7581 40.3552C22.893 40.4053 22.4284 40.3767 22.3346 40.146C22.275 39.9991 22.2084 38.8619 22.1867 37.6191C22.157 35.9187 22.204 35.3107 22.3769 35.163C22.543 35.021 25.1799 34.9338 31.9041 34.8483L41.2017 34.73L41.2477 37.3645L41.2937 39.999L37.9619 40.1422L34.6301 40.2854L34.8007 50.0586L34.9713 59.8318L42.7115 59.7408C49.3422 59.663 50.4651 59.6145 50.5428 59.402C50.6216 59.1868 49.7156 56.095 47.8873 50.3402C45.2658 42.0881 43.1559 35.0731 43.2327 34.8635C43.31 34.6521 43.7821 34.6 45.9672 34.5618L48.6082 34.5157L48.9683 35.572C49.1661 36.1531 49.6228 37.5796 49.9828 38.7422C52.9087 48.1893 53.1156 48.8054 53.3777 48.8516C53.5811 48.8875 53.7482 48.5477 54.0527 47.4796C54.485 45.9631 56.2744 39.428 57.1077 36.3226L57.6118 34.4436L60.1605 34.3141C61.6331 34.2393 62.7319 34.1123 62.7629 34.0133C62.7925 33.9191 57.3014 28.5465 50.5604 22.0742C41.2702 13.1544 38.257 10.3551 38.1096 10.507C37.9619 10.6589 37.9689 10.9045 38.1381 11.5221C38.5106 12.8816 38.4498 14.5918 37.9758 16.0808L37.5544 17.405L38.3546 18.2266C38.7947 18.6782 39.406 19.558 39.7129 20.1813C40.7611 22.3099 40.6102 25.1493 39.3385 27.2318C38.2599 28.998 36.08 30.4541 33.9216 30.8495C33.1805 30.9854 30.8382 31.0789 27.4592 31.1072L22.1594 31.1519L21.8558 18.6608L21.5522 6.16956L16.5825 6.21118C13.8492 6.23425 11.5613 6.30603 11.4983 6.37085ZM5.05731 12.036C5.01215 12.1593 5.01239 13.1349 5.05774 14.2037L5.14038 16.1471L7.14771 16.16C9.42194 16.1746 9.96619 15.9979 10.5146 15.0674C11.1709 13.9542 10.6809 12.4408 9.51514 11.9801C8.71704 11.6647 5.17694 11.7091 5.05731 12.036ZM27.2844 11.6343C27.2364 11.7653 27.2344 12.7471 27.2797 13.8158L27.3624 15.7593L29.3854 15.7719C31.1609 15.7831 31.475 15.7421 31.955 15.4354C32.6706 14.9781 32.9841 14.3391 32.9473 13.4119C32.9223 12.7832 32.8125 12.5583 32.2798 12.0468L31.6423 11.4341L29.507 11.4149C27.8011 11.3998 27.3541 11.4437 27.2844 11.6343ZM5.22943 21.8942C5.1842 22.0176 5.18445 22.993 5.2298 24.0619L5.31244 26.0054L8.23083 26.0009C11.0258 25.9963 11.1739 25.9794 11.7291 25.5975C12.0481 25.3781 12.4485 24.9028 12.6188 24.5413C12.8843 23.9783 12.8983 23.7893 12.7174 23.2245C12.4897 22.5142 11.9762 21.9529 11.3394 21.7183C11.1204 21.6376 9.67438 21.5936 8.12634 21.6207C5.9621 21.6584 5.2926 21.7217 5.22943 21.8942ZM27.4485 23.4407L27.5344 25.6174L30.4528 25.6129C33.2554 25.6085 33.3942 25.5924 33.9486 25.2068C34.6713 24.704 34.9412 24.1602 34.9283 23.233C34.92 22.6431 34.8074 22.3921 34.3223 21.8834L33.7265 21.2588L30.5446 21.2614L27.3625 21.2638L27.4485 23.4407Z" fill="#FFFFFF" fill-opacity="1.000000" fill-rule="evenodd"/>
	<path id="image 15 (Traced)" d="M79.4092 48.6866L78.8344 15.7543L85.8771 15.7517C92.7582 15.7488 92.9668 15.7705 94.9775 16.705C98.6182 18.3961 100.679 21.5692 100.749 25.5873C100.749 25.6064 100.75 25.6257 100.75 25.6449C100.764 26.7705 100.509 28.2191 100.153 29.0336L99.5312 30.4561L100.934 31.989C101.79 32.9241 102.572 34.2745 102.941 35.4525C103.231 36.3805 103.379 37.3197 103.395 38.2458C103.459 41.9198 101.448 45.3885 97.9992 47.1396C95.9912 48.1593 95.9425 48.1655 87.6955 48.4255L79.4092 48.6866ZM318.872 18.6866L318.749 11.6304L342.634 11.2135L342.757 18.2698L334.201 18.4192L334.651 44.1746L327.878 44.2928L327.428 18.5374L318.872 18.6866ZM355.068 40.9948C352.753 33.7671 346.352 13.3314 346.026 12.1249L345.765 11.1588L352.941 11.0336L353.688 13.4028C354.098 14.7057 355.477 19.0868 356.751 23.1383C358.985 30.2441 359.252 30.9775 359.486 30.6537C359.546 30.5714 360.453 27.3134 361.503 23.4128C362.553 19.5125 363.757 15.124 364.179 13.6608L364.946 11.0005L368.627 10.8353C371.451 10.7084 372.131 10.7289 372.136 11.0648C372.137 11.1135 372.124 11.1688 372.101 11.2313C371.988 11.5404 370.902 15.416 369.688 19.8445C366.144 32.7823 364.512 38.7258 363.799 41.2955L363.132 43.7018L359.522 43.6642L355.912 43.627L355.068 40.9948ZM195.359 26.4103C195.959 26.913 195.986 26.6066 195.88 20.5353L195.768 14.13L203.255 13.9993L203.821 46.4583L196.691 46.5826L196.646 43.981L195.682 44.9275C193.603 46.9686 190.637 47.5248 187.067 46.5427C185.601 46.1395 184.66 45.5472 183.068 44.0253C180.649 41.7139 179.827 39.7217 179.761 35.9589C179.76 35.9014 179.76 35.8435 179.759 35.7852C179.727 32.9669 180.212 31.2426 181.623 29.1505C184.671 24.6326 191.589 23.2522 195.359 26.4103ZM208.812 46.3711L208.245 13.9122L215.732 13.7815L215.843 20.1869C215.949 26.2581 215.987 26.5634 216.57 26.04C219.724 23.2051 225.678 23.6573 229.099 26.9921C229.765 27.6417 230.75 28.9597 231.288 29.9209C232.147 31.4576 232.273 32.0728 232.325 35.0201L232.326 35.0724C232.377 37.9807 232.267 38.6222 231.43 40.3864C230.229 42.9163 228.351 44.6724 225.771 45.6794C222.374 47.0054 218.71 46.5287 216.837 44.5161C215.861 43.4684 215.539 43.5955 215.564 45.0181L215.585 46.2528L208.812 46.3711ZM307.928 24.9635L307.704 12.1761L314.834 12.0516L315.401 44.5106L308.627 44.6288L308.601 43.1389C308.576 41.6609 308.571 41.6558 308.008 42.4812C307.181 43.6948 304.129 45.0529 302.141 45.0914C300.029 45.1328 297.07 44.1106 295.327 42.7382C294.556 42.1309 293.472 40.689 292.772 39.3407C291.732 37.338 291.567 36.754 291.526 34.3792C291.524 34.2555 291.522 34.127 291.52 33.9932C291.49 31.4619 291.633 30.6699 292.424 28.9734C294.173 25.2251 297.686 22.8568 301.625 22.7708C303.758 22.7244 305.437 23.2212 307.115 24.3954L307.928 24.9635ZM93.9078 25.2721C93.8984 24.7297 93.6444 24.3676 92.9495 23.7031C91.9032 22.7031 91.7001 22.652 88.9677 22.6997L86.0884 22.75L86.1943 28.8201L89.2126 28.6432C92.6014 28.4443 93.4683 27.9291 93.8431 25.8922C93.887 25.6536 93.911 25.4529 93.9078 25.2721ZM126.023 37.0648C125.941 32.3708 129.056 27.7472 133.7 26.1532C141.154 23.595 148.894 29.0103 149.027 36.6237C149.031 36.8658 149.028 37.1102 149.016 37.3566C148.569 47.0034 137.102 51.7777 129.882 45.3235C127.825 43.4851 126.982 42.0581 126.304 39.2705C126.127 38.5413 126.036 37.8021 126.023 37.0648ZM235.492 34.967C235.4 29.7183 238.906 24.9646 244.064 23.8401C246.494 23.3103 249.322 24.02 251.152 25.6182L251.966 26.3303L251.927 24.0903L259.413 23.9596L259.789 45.4813L252.303 45.6119L252.265 43.4591L251.122 44.3307C247.706 46.9331 242.848 46.5647 239.35 43.4379C237.21 41.5253 236.374 40.0813 235.756 37.231C235.591 36.4723 235.505 35.7147 235.492 34.967ZM152.699 32.3129C153.776 28.9907 156.966 26.0927 160.358 25.3547C161.208 25.1694 162.547 25.0914 163.333 25.1808C164.821 25.35 167.242 26.3551 167.64 26.9683C168.06 27.6156 168.541 27.3224 168.525 26.4283L168.51 25.5464L175.996 25.4156L176.372 46.9374L168.886 47.068L168.849 44.9723L167.599 45.8444C165.742 47.1392 164.035 47.6178 161.914 47.4385C157.992 47.1071 154.899 44.9652 153.164 41.3801C152.518 40.0439 152.168 38.2661 152.136 36.4729C152.111 35.0209 152.295 33.5587 152.699 32.3129ZM115.155 27.9698C115.591 27.5507 116.503 26.9574 117.182 26.6516C117.862 26.3457 119.232 26.0751 120.226 26.0499C122.034 26.0046 125.208 26.7938 125.591 27.3835C125.597 27.3931 125.601 27.4065 125.601 27.4235C125.606 27.7144 124.773 29.0739 123.668 30.5635C121.833 33.037 121.448 33.3832 120.864 33.0863C120.491 32.8973 119.531 32.7539 118.731 32.7678C117.573 32.7881 117.01 33.0435 115.966 34.0231L114.656 35.2533L114.879 48.0354L107.214 48.1692L106.838 26.6228L114.325 26.4922L114.364 28.7322L115.155 27.9698ZM272.975 24.7842C273.517 24.3876 274.336 23.907 274.794 23.7158C275.253 23.5247 276.616 23.3411 277.825 23.3076C282.084 23.1898 286.463 26.3563 287.756 30.4884C288.095 31.5709 288.298 34.1948 288.372 38.4534L288.483 44.804L284.831 44.9683L281.179 45.1327L281.079 39.4403C280.968 33.0646 280.62 31.809 278.636 30.6211C277.244 29.7875 274.494 29.9795 273.39 30.9873C271.95 32.3033 271.706 33.6307 271.811 39.6134L271.91 45.2698L264.78 45.3942L264.404 23.8726L271.534 23.748L271.549 24.6301C271.568 25.6952 271.708 25.7104 272.975 24.7842ZM139.855 40.7108C141.334 39.9211 142.055 38.3264 142.028 36.7511C142.001 35.1959 141.244 33.6598 139.767 32.936C136.596 31.3828 132.99 33.5181 133.049 36.9132C133.11 40.3824 136.709 42.3909 139.855 40.7108ZM168.278 34.8608C167.964 34.085 167.217 33.181 166.52 32.7334C164.02 31.1289 160.974 32.1699 159.945 34.9801C159.677 35.7123 159.539 36.1215 159.546 36.5165C159.554 36.9473 159.734 37.3611 160.107 38.1586C161.857 41.8961 167.036 41.5863 168.34 37.6661C168.549 37.037 168.653 36.6309 168.646 36.2378C168.639 35.8385 168.518 35.4529 168.278 34.8608ZM196.147 35.7917C196.122 34.3635 195.94 33.9877 194.71 32.8116C193.471 31.6277 193.1 31.4697 191.614 31.4956C190.129 31.5216 189.763 31.6924 188.566 32.9189C187.378 34.1371 187.209 34.519 187.234 35.9473C187.258 37.3162 187.465 37.7922 188.506 38.8783C189.661 40.0824 189.893 40.1722 191.765 40.1396C193.637 40.1069 193.866 40.009 194.978 38.7654C195.981 37.6436 196.17 37.1606 196.147 35.7917ZM224.285 33.1484C223.892 32.5338 223.085 31.7933 222.493 31.5033C221.036 30.7894 219.279 30.8751 218.03 31.7213C216.666 32.6459 216.106 33.7574 216.136 35.4791C216.166 37.2009 216.764 38.2922 218.16 39.1686C221.296 41.1372 225.008 38.4224 224.954 35.2917C224.941 34.5822 224.736 33.8511 224.285 33.1484ZM308.084 33.8978C308.062 32.6764 306.953 30.8785 305.812 30.2173C304.307 29.3444 302.448 29.3662 301 30.2745C299.575 31.1686 299.021 32.241 299.052 34.041C299.113 37.5074 302.897 39.5183 305.86 37.6589C306.935 36.984 308.103 35.0092 308.084 33.8978ZM252.113 34.8152L252.113 34.8124C252.09 33.507 250.777 31.5291 249.54 30.9359C248.4 30.3901 246.386 30.4376 245.341 31.0354C243.906 31.8562 243.206 33.41 243.233 34.9569C243.26 36.4812 243.992 37.9989 245.423 38.8021C248.262 40.3958 252.166 38.0688 252.113 34.8152ZM95.506 40.424C96.0883 39.8274 96.371 39.0939 96.3584 38.3694C96.3454 37.6257 96.0213 36.8916 95.3906 36.3247C94.5345 35.5554 94.1179 35.4816 90.3828 35.4381L86.309 35.3906L86.4148 41.4491L90.5304 41.3773C94.425 41.3093 94.6926 41.2581 95.506 40.424Z" fill="#FFFFFF" fill-opacity="1.000000" fill-rule="evenodd"/>
</svg>
