<svg width="210.032715" height="64.638306" viewBox="0 0 210.033 64.6383" fill="none" xmlns="http://www.w3.org/2000/svg" xmlns:xlink="http://www.w3.org/1999/xlink">
	<desc>
			Created with Pixso.
	</desc>
	<defs/>
	<path id="Layer 1" d="M199.546 0.292114C198.076 5.2135 195.745 9.67993 192.127 14.5078C189.441 18.0919 185.851 21.8047 181.725 25.2665L181.063 25.8223L180.088 25.1945C175.989 22.5563 171.287 20.317 166.079 18.5229C165.393 18.2869 164.843 18.0842 164.855 18.0726C164.884 18.0464 171.671 15.1373 172.304 14.8796C172.559 14.7758 172.797 14.6619 172.832 14.6265C172.894 14.5627 175.636 4.85107 175.633 4.70166C175.632 4.65869 168.503 4.74817 159.789 4.90027L143.946 5.17676L143.81 5.67139C143.736 5.94336 143.166 7.98889 142.544 10.2169L141.414 14.2679L137.546 14.3956C135.325 14.469 132.962 14.5992 131.997 14.7015C130.211 14.8909 128.759 15.0865 128.702 15.1456C128.646 15.2034 129.205 15.2638 130.606 15.3518C132.451 15.4677 135.225 15.7739 137.586 16.1223C150.341 18.0044 162.659 22.4719 173.873 29.2833L175.204 30.092L174.688 30.4166C173.877 30.9257 171.255 32.5367 170.794 32.8091C169.669 33.4738 165.176 35.7942 163.657 36.4951C156.743 39.6864 150.391 41.901 141.815 44.1102C135.687 45.6888 126.462 47.3021 118.835 48.129C113.334 48.7253 105.718 49.2445 101.182 49.3324C100.157 49.3523 99.5553 49.3966 99.6425 49.4458C99.8105 49.5405 104.993 50.0343 107.556 50.1995C117.198 50.8213 128.231 50.6462 137.238 49.7286C150.042 48.4241 161.191 45.665 170.245 41.5602C174.116 39.8052 178.307 37.3888 181.194 35.2467L181.958 34.6804L182.737 35.2596C191.94 42.0948 199.827 50.1501 206.176 59.1984C206.902 60.233 207.516 61.059 207.54 61.0338C207.587 60.9846 206.878 59.0968 206.048 57.0621C202.966 49.5115 198.871 42.7488 193.907 37.0135C192.693 35.6105 189.965 32.759 189.32 32.2184C189.116 32.0472 188.519 31.5281 187.995 31.0646L187.041 30.2222L187.36 29.9038C187.937 29.3302 189.724 27.2281 190.584 26.1129C194.543 20.9768 197.274 14.9053 198.643 8.19385C199.113 5.88953 199.386 3.80713 199.636 0.618774C199.669 0.197876 199.623 0.0321045 199.546 0.292114ZM204.524 4.12817C203.383 4.34729 202.301 5.2196 201.813 6.31384C201.49 7.04016 201.4 8.19019 201.61 8.92944C202.19 10.97 204.411 12.1676 206.43 11.5291C208.229 10.9607 209.36 9.14734 209.057 7.32153C208.929 6.55469 208.815 6.26331 208.416 5.68262C207.57 4.453 206.032 3.83875 204.524 4.12817ZM5.56372 8.36572C4.31836 12.7555 0.404297 26.8141 0.40564 26.8927C0.406982 26.9647 1.43726 26.9771 3.8905 26.9342L7.37329 26.8734L10.0577 17.3013C11.5341 12.0367 12.7545 7.67004 12.7699 7.59766C12.7935 7.48657 12.248 7.47559 9.29102 7.52722L5.78418 7.58838L5.56372 8.36572ZM29.6633 9.72632C29.2646 11.1384 28.8157 12.7281 28.6658 13.2594L28.3933 14.2251L20.4816 14.3632L12.5698 14.5013L11.8466 16.984C11.4489 18.3495 11.1243 19.5153 11.1252 19.5747C11.1267 19.6554 13.114 19.6481 18.9797 19.5457C23.2987 19.4703 26.8329 19.4404 26.8336 19.4792C26.8345 19.5315 25.2979 25.0558 24.9337 26.3091C24.8887 26.4641 25.1001 26.4702 28.4839 26.4111L32.0822 26.3484L32.1733 26.0421C32.2235 25.8737 32.7179 24.1036 33.272 22.1088C35.7489 13.1896 37.401 7.26306 37.4406 7.15381C37.4747 7.05969 36.7472 7.04797 33.9362 7.09705L30.3884 7.15894L29.6633 9.72632ZM40.1278 7.10608C40.0005 7.47168 38.8535 11.6545 38.8551 11.7474C38.8562 11.8086 41.0917 13.7507 43.8229 16.0632L48.7886 20.2678L47.9695 23.1531C47.519 24.74 47.1501 26.0702 47.1498 26.1088C47.1493 26.1475 48.7401 26.1514 50.6848 26.1174L54.2207 26.0557L54.9948 23.2531C55.4204 21.7115 55.8359 20.3816 55.9181 20.2974C56.0002 20.2133 59.2952 18.2213 63.2401 15.871C67.1851 13.5206 70.4253 11.5853 70.4408 11.5701C70.4777 11.5341 71.9568 6.59509 71.958 6.50366C71.9585 6.46497 70.3634 6.46118 68.4132 6.49524L64.8676 6.55713L64.7233 7.09863C64.6438 7.39661 64.4907 7.95825 64.3829 8.3468L64.1871 9.05334L61.9707 10.3801C60.7516 11.1097 59.4626 11.8755 59.1062 12.0817C58.7498 12.2877 57.3165 13.1307 55.921 13.9548L53.384 15.4534L51.9521 14.2574C51.1646 13.5996 49.8076 12.4669 48.9366 11.7404C48.0657 11.0139 47.1527 10.2439 46.908 10.0294L46.463 9.6394L46.8262 8.35266C47.026 7.6449 47.1886 7.02087 47.1877 6.96582C47.1849 6.81018 40.1824 6.94934 40.1278 7.10608ZM74.0828 6.84155C73.7224 8.03735 68.8336 25.6013 68.8352 25.694C68.8365 25.7717 69.7863 25.7839 72.339 25.7394L75.8408 25.6782L76.009 25.0894C76.1016 24.7656 77.0027 21.5647 78.0114 17.9762L79.8453 11.452L88.625 11.2987C96.9418 11.1536 97.4023 11.1542 97.3615 11.3103C97.0042 12.6704 97.0245 12.6346 96.4778 12.8655C96.197 12.9841 94.9026 13.5662 93.6014 14.1591L91.2357 15.2371L85.8187 15.3787L80.4016 15.5204L79.718 17.8265C79.3419 19.0948 79.012 20.2292 78.9846 20.3472L78.9348 20.5618L85.6691 20.4442L92.4033 20.3267L94.7448 19.2919C96.0325 18.7229 97.9631 17.8705 99.0349 17.3979C102.099 16.0471 103.02 15.6294 103.087 15.5615C103.141 15.5067 105.714 6.70032 105.86 6.073L105.914 5.84058L90.0657 6.11731L74.2177 6.39392L74.0828 6.84155ZM109.138 5.85461C109.118 5.8938 108.614 7.578 108.019 9.59741C107.424 11.6169 106.921 13.3141 106.901 13.369C106.881 13.424 107.606 13.8755 108.511 14.3724C109.417 14.8695 110.142 15.3041 110.122 15.3383C110.101 15.3723 109.127 15.8126 107.955 16.3165L105.826 17.2329L105.631 17.9395C105.305 19.1188 103.723 24.7798 103.66 24.9939L103.6 25.1943L119.473 24.8936L135.345 24.5928L136.029 22.2839C136.404 21.014 136.736 19.8588 136.765 19.7167L136.818 19.4584L124.918 19.6422L113.019 19.8262L114.221 19.2974C114.882 19.0066 115.987 18.5179 116.676 18.2118C117.365 17.9054 119.098 17.1405 120.527 16.5117C121.956 15.8829 123.159 15.3353 123.2 15.2947C123.24 15.254 121.441 14.2448 119.2 13.0519L115.126 10.8831L127.255 10.6244L139.384 10.3658L140.071 8.01001C140.45 6.71436 140.782 5.55896 140.809 5.4425L140.86 5.23059L125.018 5.5072C116.305 5.6593 109.159 5.81555 109.138 5.85461ZM206.375 4.94617C207.118 5.21008 207.906 5.9729 208.195 6.70801C208.772 8.17529 208.148 9.85376 206.738 10.6278C206.331 10.8511 206.161 10.8851 205.385 10.8999C204.62 10.9144 204.432 10.8853 204.033 10.6906C201.451 9.42993 201.707 5.75305 204.438 4.86475C204.912 4.71057 205.819 4.74866 206.375 4.94617ZM203.835 7.87085L203.873 10.0371L204.2 10.0314L204.528 10.0256L204.51 9.0415L204.493 8.0575L204.907 8.05029L205.32 8.04309L205.929 9.01477C206.53 9.97412 206.542 9.98633 206.894 9.9823C207.153 9.97925 207.23 9.94678 207.179 9.86218C207.14 9.79846 206.856 9.38306 206.549 8.93921C206.242 8.49536 205.99 8.1095 205.99 8.08179C205.989 8.05408 206.075 8.02991 206.181 8.02795C206.451 8.02332 206.882 7.77319 207.05 7.52368C207.131 7.40283 207.189 7.11804 207.184 6.85852C207.168 5.91296 206.854 5.74329 205.084 5.72083L203.798 5.70459L203.835 7.87085ZM206.427 6.33618C206.691 6.59216 206.68 7.03625 206.402 7.3252C206.194 7.54114 206.107 7.56055 205.284 7.57495L204.392 7.59045L204.379 6.88757L204.367 6.18469L205.302 6.16833C206.112 6.15417 206.262 6.17664 206.427 6.33618ZM167.115 10.0459C167.111 10.1105 167.003 10.4965 166.873 10.9037L166.637 11.6442L166.08 11.8882C165.774 12.0225 164.55 12.5668 163.361 13.0978L161.198 14.0632L154.814 14.1747L148.43 14.2861L149.007 12.2604L149.584 10.2346L158.353 10.0817C165.31 9.96021 167.12 9.95276 167.115 10.0459ZM139.467 21.1804C138.975 22.9329 138.573 24.4154 138.574 24.475C138.575 24.5549 139.49 24.5673 142.074 24.5222L145.572 24.4611L145.663 24.1549C145.712 23.9865 146.015 22.9232 146.336 21.7922C146.656 20.6613 146.939 19.6793 146.964 19.6101C147.037 19.4078 145.721 19.0839 140.558 18.0336C140.377 17.9968 140.298 18.224 139.467 21.1804Z" fill="#FFFFFF" fill-opacity="1.000000" fill-rule="evenodd"/>
	<path id="Layer 2" d="M199.546 0.292114C198.076 5.21338 195.745 9.67981 192.127 14.5077C189.441 18.0918 185.851 21.8046 181.725 25.2664L181.063 25.8223L180.088 25.1945C171.694 19.791 161.355 16.3115 149.582 14.9281C143.112 14.168 135.018 14.1947 129.527 14.9945C129.092 15.058 128.721 15.1259 128.702 15.1455C128.646 15.2032 129.205 15.2637 130.606 15.3518C132.451 15.4675 135.225 15.7738 137.586 16.1222C150.341 18.0043 162.659 22.4718 173.873 29.2832L175.204 30.092L174.688 30.4165C173.877 30.9255 171.255 32.5367 170.794 32.8091C169.669 33.4736 165.176 35.7942 163.658 36.4951C156.743 39.6863 150.391 41.9009 141.815 44.1101C135.687 45.6887 126.462 47.3021 118.835 48.129C113.334 48.7252 105.718 49.2445 101.182 49.3323C100.157 49.3522 99.5554 49.3966 99.6426 49.4458C99.8105 49.5405 104.993 50.0342 107.556 50.1993C117.199 50.8212 128.231 50.6461 137.238 49.7285C150.042 48.424 161.191 45.6649 170.245 41.5601C174.116 39.8052 178.307 37.3887 181.194 35.2466L181.958 34.6803L182.738 35.2596C191.94 42.0947 199.827 50.1501 206.176 59.1984C206.902 60.2329 207.516 61.0588 207.54 61.0337C207.587 60.9845 206.878 59.0967 206.048 57.0621C202.966 49.5114 198.871 42.7487 193.907 37.0134C192.693 35.6104 189.965 32.7589 189.32 32.2183C189.116 32.0471 188.519 31.528 187.995 31.0646L187.041 30.222L187.361 29.9037C187.937 29.3301 189.724 27.228 190.584 26.1129C194.543 20.9767 197.274 14.9052 198.643 8.19385C199.113 5.8894 199.386 3.80713 199.636 0.618652C199.669 0.197754 199.623 0.0319824 199.546 0.292114ZM204.524 4.12805C203.383 4.34717 202.301 5.2196 201.813 6.31384C201.49 7.04004 201.4 8.19006 201.61 8.92932C202.19 10.9698 204.411 12.1675 206.431 11.5291C208.229 10.9606 209.361 9.14722 209.057 7.32141C208.929 6.55469 208.815 6.26318 208.416 5.6825C207.57 4.45288 206.033 3.83862 204.524 4.12805ZM206.375 4.94604C207.118 5.20996 207.906 5.97278 208.195 6.70789C208.772 8.17529 208.148 9.85376 206.738 10.6278C206.331 10.851 206.161 10.885 205.385 10.8998C204.62 10.9144 204.432 10.8851 204.033 10.6904C201.451 9.42981 201.707 5.75293 204.438 4.86475C204.912 4.71045 205.819 4.74854 206.375 4.94604ZM203.835 7.87073L203.873 10.037L204.2 10.0312L204.528 10.0255L204.51 9.0415L204.493 8.05737L204.907 8.05017L205.32 8.04297L205.929 9.01465C206.53 9.974 206.542 9.98621 206.894 9.98218C207.153 9.97913 207.23 9.94666 207.179 9.86206C207.14 9.79834 206.856 9.38306 206.549 8.93909C206.242 8.49536 205.99 8.10938 205.99 8.08167C205.989 8.05396 206.075 8.02979 206.181 8.02795C206.451 8.02319 206.882 7.77319 207.05 7.52368C207.131 7.40283 207.189 7.11804 207.184 6.8584C207.168 5.91284 206.855 5.74316 205.084 5.7207L203.798 5.70447L203.835 7.87073ZM206.427 6.33606C206.691 6.59216 206.68 7.03625 206.402 7.3252C206.194 7.54102 206.107 7.56042 205.284 7.57483L204.392 7.59045L204.379 6.88745L204.367 6.18457L205.302 6.16821C206.112 6.15405 206.262 6.17651 206.427 6.33606Z" fill="#FFFFFF" fill-opacity="1.000000" fill-rule="evenodd"/>
	<path id="Layer 3" d="M199.55 0.278687C199.057 1.88953 198.698 2.93359 198.326 3.83301C196.723 7.7146 194.503 11.4484 191.445 15.4067C189.165 18.3591 185.234 22.3478 181.725 25.2705L181.062 25.8226L180.228 25.281C178.811 24.3615 176.169 22.8662 174.439 22.005C167.161 18.3817 158.859 16.0183 149.582 14.9282C143.112 14.168 135.018 14.1948 129.527 14.9946C129.092 15.058 128.721 15.1259 128.702 15.1456C128.647 15.2024 129.198 15.2625 130.559 15.3483C137.434 15.7811 145.488 17.3301 152.468 19.5615C160.396 22.0964 167.379 25.2838 174.254 29.5066L175.211 30.0944L174.969 30.2458C171.111 32.6512 170.813 32.8257 167.968 34.3339C160.174 38.4661 152.24 41.4321 141.815 44.1101C135.613 45.7036 126.488 47.2993 118.835 48.129C113.305 48.7285 105.742 49.2441 101.182 49.3324C100.157 49.3523 99.5553 49.3966 99.6425 49.4458C99.8105 49.5405 104.993 50.0343 107.556 50.1995C117.198 50.8213 128.231 50.6462 137.238 49.7286C155.531 47.8649 170.109 43.1223 180.692 35.5931L181.969 34.6842L182.932 35.3972C191.831 41.9822 199.882 50.2263 206.176 59.1984C206.902 60.233 207.516 61.059 207.54 61.0338C207.597 60.9742 206.764 58.7982 205.805 56.5039C202.725 49.1339 198.862 42.7772 194.098 37.2394C192.018 34.8213 190.257 33.0549 187.529 30.6493L187.042 30.2196L187.315 29.9502C187.869 29.4048 189.702 27.2542 190.551 26.1534C195.787 19.3635 198.825 11.0887 199.555 1.62793C199.655 0.331909 199.654 -0.0587158 199.55 0.278687Z" fill="#FFFFFF" fill-opacity="1.000000" fill-rule="evenodd"/>
</svg>
