<svg width="307.711121" height="47.195435" viewBox="0 0 307.711 47.1954" fill="none" xmlns="http://www.w3.org/2000/svg" xmlns:xlink="http://www.w3.org/1999/xlink">
	<desc>
			Created with Pixso.
	</desc>
	<defs/>
	<path id="image 16 (Traced)" d="M172.205 0.683716C148.036 4.40576 127.703 21.1715 117.593 45.7137C117.278 46.4774 117.064 47.1437 117.117 47.1942C117.17 47.2451 118.198 45.7588 119.401 43.8918C130.754 26.2784 146.942 14.4215 164.911 10.5583C169.762 9.51575 172.785 9.12488 172.636 9.55981C172.574 9.73853 170.997 12.1049 169.131 14.8185L165.739 19.7528L157.835 19.9191L149.931 20.0856L147.501 22.7864L145.072 25.4875L153.318 25.3436C157.853 25.2644 161.566 25.313 161.568 25.451C161.571 25.5895 160.478 27.2686 159.141 29.1826C157.803 31.0968 156.773 32.7678 156.853 32.8958C156.931 33.024 158.881 33.0959 161.185 33.0557C165.72 32.9766 165.802 32.949 167.108 31.0684C168.046 29.7192 180.681 11.9437 184.17 7.06555C189.109 0.160034 189.011 0.317139 188.459 0.117432C187.54 -0.214111 175.258 0.213745 172.205 0.683716ZM10.7755 12.3524C6.7879 18.0325 4.68311 21.0209 2.1673 24.5735C0.973083 26.2596 -0.0020752 27.7369 0 27.8562C0.0020752 27.9755 6.65381 27.892 14.782 27.671C30.4755 27.2445 31.7045 27.1172 35.8359 25.4934C41.2734 23.3561 46.6043 18.2068 46.5757 15.1188C46.5515 12.4814 44.1589 9.64697 41.0922 8.62231C39.4882 8.0863 38.2914 8.04858 26.4886 8.16064L13.6321 8.28308L10.7755 12.3524ZM54.4049 9.72302C55.5498 10.8685 57.4958 12.811 58.7289 14.0391C60.1364 15.4413 60.8597 16.3822 60.6719 16.5669C60.4017 16.8325 55.1677 19.4304 43.3563 25.1606L39.1972 27.1786L45.5934 27.1521L51.9897 27.1259L58.326 24.0255C61.8109 22.3207 64.8002 20.9232 64.969 20.9202C65.1375 20.9172 66.6121 22.3044 68.2455 24.0028L71.2154 27.0907L76.1074 27.0052C78.9049 26.9564 80.9525 26.7986 80.8892 26.6367C80.8286 26.4811 78.9299 24.3853 76.6703 21.9791C74.4106 19.573 72.5596 17.4935 72.5573 17.3579C72.5549 17.2223 73.7879 16.511 75.2969 15.7772C76.8063 15.0436 81.4982 12.7512 85.7238 10.6835L93.4066 6.92358L86.7133 7.04004L80.0204 7.15662L76.3106 8.98425C74.2705 9.9895 71.5956 11.2961 70.3668 11.8877L68.1326 12.9639L65.6274 10.2075L63.1223 7.45154L57.7228 7.54578L52.3232 7.64001L54.4049 9.72302ZM96.8992 10.5364C95.4197 12.5992 92.2227 17.0416 89.7953 20.4083L85.3814 26.5294L89.1524 26.4636L92.9236 26.3978L93.6621 25.3645C98.0453 19.2307 100.12 16.3368 101.537 14.3829L103.217 12.0651L113.604 11.9745C122.964 11.8927 124.046 11.9364 124.548 12.4183C125.334 13.1726 124.835 14.483 123.439 15.3303C122.421 15.9478 121.696 16.0164 113.031 16.3136L103.717 16.6332L109.254 21.3246L114.791 26.0161L119.591 25.9323C123.628 25.8618 124.317 25.7826 123.921 25.4351C123.663 25.2075 122.369 24.1472 121.045 23.0786C119.722 22.0104 118.597 21.0394 118.546 20.9216C118.494 20.8035 119.843 20.6017 121.543 20.4728C127.05 20.0548 131.095 17.9336 132.827 14.5552C134.524 11.2448 133.418 8.58716 129.718 7.09155C128.261 6.50256 127.501 6.48035 113.889 6.62915L99.5897 6.78516L96.8992 10.5364ZM192.307 5.95642C191.23 6.37488 189.89 7.07776 189.329 7.51794C188.769 7.95825 186.401 11.0774 184.068 14.4497C180.925 18.9939 179.831 20.8202 179.843 21.5057C179.863 22.652 181.355 24.0759 183.008 24.5271C183.78 24.7374 188.579 24.7341 197.29 24.5171C197.29 24.5171 208.703 24.479 210.409 24.1901C213.797 23.6165 215.366 21.358 217.243 18.6548L218.402 16.9861L213.965 17.0636L209.528 17.141L208.703 18.2544L207.878 19.3677L199.832 19.5081C191.649 19.6509 190.563 19.5308 190.542 18.4818C190.527 17.7355 193.727 12.9449 195.021 11.7766C195.606 11.2487 196.619 10.6589 197.273 10.4663C197.954 10.2657 201.802 10.0573 206.287 9.97803C214.452 9.83362 214.737 9.87952 213.611 11.158C213.117 11.7205 213.26 11.738 217.652 11.6519C221.992 11.5668 222.229 11.5293 222.687 10.8575C222.951 10.4696 223.627 9.4823 224.19 8.66309C224.978 7.5155 225.162 6.98511 224.99 6.35205C224.541 4.69617 223.923 4.64319 208.423 4.93164C194.419 5.19238 194.243 5.20361 192.307 5.95642ZM228.107 10.3018C225.907 13.4918 222.846 17.9249 221.303 20.1537L218.499 24.2058L236.171 23.8975L253.843 23.589L255.568 21.1255L257.292 18.6621L244.084 18.8138C236.819 18.8973 230.69 18.9008 230.464 18.8212C230.161 18.7144 230.233 18.4255 230.742 17.7174L231.43 16.7588L241.883 16.5747L252.336 16.3906L253.877 14.0991C254.725 12.8387 255.464 11.6962 255.52 11.5602C255.575 11.4242 251.056 11.3926 245.477 11.49C234.664 11.6787 234.692 11.6826 235.922 10.1653L236.503 9.44873L249.958 9.21387L263.414 8.979L264.606 7.30981C265.261 6.3916 266.045 5.24792 266.347 4.7677L266.897 3.89465L249.502 4.19824L232.107 4.50183L228.107 10.3018ZM267.447 12.407C264.051 17.1573 260.879 21.5942 260.397 22.2667L259.521 23.4899L263.285 23.4241L267.049 23.3584L270.578 18.4048C272.519 15.6804 274.852 12.4535 275.764 11.2341L277.42 9.01709L287.772 8.93066C298.575 8.84033 299.186 8.90845 299.182 10.1984C299.179 11.1095 298.006 12.1913 296.502 12.6697C295.395 13.0211 292.877 13.1759 286.309 13.2959C277.992 13.4476 277.618 13.48 278.273 13.9856C278.651 14.2776 281.203 16.4233 283.944 18.7545L288.927 22.9932L293.685 22.8231L298.444 22.6534L295.566 20.3583C293.984 19.0961 292.687 17.9529 292.684 17.8182C292.682 17.6836 293.569 17.5554 294.656 17.5337C300.496 17.4154 305.419 14.8813 307.121 11.1169C308.512 8.04053 307.427 5.58777 304.031 4.13281C302.406 3.43677 302.299 3.43298 288.008 3.6012L273.621 3.77039L267.447 12.407ZM34.767 13.3929C37.8376 13.9761 38.6906 15.1487 37.6143 17.3066C37.0225 18.493 34.8495 20.3085 32.9086 21.2384C31.4324 21.9458 30.9584 21.9893 21.9613 22.2415C16.7888 22.3864 12.5555 22.4144 12.5536 22.3036C12.5516 22.1927 13.9562 20.1101 15.675 17.6754L18.7999 13.2488L25.7952 13.1333C30.3082 13.0586 33.4917 13.1509 34.767 13.3929Z" fill="#FFFFFF" fill-opacity="1.000000" fill-rule="evenodd"/>
</svg>
