<svg width="234.362549" height="30.559204" viewBox="0 0 234.363 30.5592" fill="none" xmlns="http://www.w3.org/2000/svg" xmlns:xlink="http://www.w3.org/1999/xlink">
	<desc>
			Created with Pixso.
	</desc>
	<defs/>
	<path id="image 14 (Traced)" d="M140.1 1.75525C135.616 3.30701 132.561 7.41284 131.902 12.7695C131.235 18.196 133.119 24.2097 136.228 26.5785C138.585 28.3746 140.524 28.9121 144.529 28.8789C148.516 28.8456 152.766 27.6981 153.964 26.3319C154.633 25.5677 154.623 25.5112 153.421 23.1825C152.077 20.5806 151.674 20.4036 149.38 21.4065C145.304 23.189 141.635 22.3115 140.406 19.2598C139.445 16.8763 139.445 13.1754 140.407 10.9313C141.669 7.98413 144.183 7.00659 148.064 7.95325C151.083 8.6897 150.947 8.76917 152.324 5.45142C153.274 3.16211 153.029 2.71484 150.34 1.82959C147.286 0.823975 142.882 0.79187 140.1 1.75525ZM0.19812 4.07532C0.0640869 4.21326 -0.022583 5.63196 0.00524902 7.22791L0.0559082 10.1292L3.57825 10.0677L7.10059 10.0062L7.37878 20.2827L7.65698 30.5592L11.371 30.4944L15.0848 30.4296L15.0043 20.1497L14.9237 9.86963L18.4025 9.80896C21.6964 9.75146 21.8928 9.70361 22.0912 8.91101C22.3602 7.83435 22.3169 5.34766 22.0104 4.28113L21.7719 3.45166L11.1064 3.63782C5.2406 3.74023 0.331665 3.93701 0.19812 4.07532ZM25.4657 3.62134C25.3248 3.76685 25.2936 8.6969 25.3962 14.5771C25.6754 30.5759 25.6553 30.5515 38.299 30.1322L45.168 29.9045L45.1162 26.9414L45.0645 23.9783L39.4364 23.9742C35.3613 23.9717 33.6949 23.8389 33.3973 23.4935C33.1307 23.1844 32.8914 19.5765 32.7163 13.2338L32.4464 3.45056L29.0841 3.40369C27.2347 3.37781 25.6062 3.47583 25.4657 3.62134ZM54.5496 3.35559C53.5695 3.86768 53.3451 4.46448 50.1724 14.9972C49.3086 17.8651 48.0331 22.098 47.3378 24.4036C45.5271 30.4099 45.394 30.0858 49.6357 30.0117C53.5918 29.9427 53.4238 30.0646 54.2153 26.6899L54.5863 25.1089L58.2643 25.0447C60.2869 25.0094 62.0365 25.1278 62.1526 25.308C62.2687 25.4879 62.6078 26.5242 62.9065 27.6105L63.4496 29.5854L67.2166 29.6252C71.625 29.6716 71.5046 29.8468 70.0288 25.5352C69.5172 24.0405 68.0046 19.5858 66.6677 15.6355C62.9515 4.65503 62.5686 3.72437 61.5621 3.22583C60.4008 2.65063 55.7328 2.73694 54.5496 3.35559ZM74.0093 3.06409C73.9036 3.35425 73.9476 7.98022 74.1077 13.3438C74.3794 22.457 74.4537 23.2101 75.2423 24.8384C77.2583 28.9983 81.2993 30.4713 89.3405 29.9767C94.0203 29.6891 97.1781 29.84 97.1299 27.0795C97.0673 23.4952 97.2238 23.4087 96.9983 14.3651L96.6979 2.3291L93.1696 2.39062L89.6414 2.45227L89.7252 12.9174L89.8094 23.3826L87.197 23.4281C84.0673 23.4828 82.6218 22.8748 82.0222 21.2513C81.7527 20.5214 81.5321 16.7568 81.4359 11.2469L81.2817 2.41296L77.7419 2.47473C75.0322 2.52197 74.1567 2.66028 74.0093 3.06409ZM103.314 2.40295C102.795 2.62207 102.433 3.18408 102.305 3.97144C102.195 4.64648 102.247 10.5314 102.42 17.0492L102.734 28.8997L106.357 28.9424L109.98 28.9851L109.856 21.8552C109.748 15.6986 109.804 14.7977 110.266 15.2583C110.561 15.5514 112.551 18.3451 114.689 21.4663C119.932 29.1207 119.565 28.7911 122.787 28.7349C127.192 28.658 126.897 29.7332 126.635 14.7114L126.41 1.81042L122.696 1.87524L118.982 1.94006L118.918 8.92993L118.854 15.9198L114.379 9.34851C111.503 5.1261 109.561 2.62915 108.945 2.36206C107.835 1.88049 104.494 1.90479 103.314 2.40295ZM158.254 1.37756C157.891 1.61621 157.862 4.55334 158.117 14.8051L158.444 27.9272L162.056 27.9702L165.669 28.0131L165.68 22.72L165.691 17.4268L169.776 17.3555L173.861 17.2842L174.137 22.4663L174.414 27.6486L178.042 27.6912L181.669 27.7341L181.337 14.2957L181.005 0.857544L177.476 0.919067L173.948 0.980713L173.93 5.90198L173.912 10.8236L169.743 10.7915L165.574 10.7598L165.385 5.854L165.196 0.948242L161.957 1.01025C160.175 1.04468 158.509 1.20972 158.254 1.37756ZM191.841 0.932129C189.989 1.46167 188.059 3.48865 187.576 5.4115C187.331 6.38501 187.286 9.93066 187.452 15.1418C187.753 24.6013 187.956 25.2762 190.938 26.7188C192.542 27.4951 192.947 27.5203 200.227 27.2976L207.839 27.0651L207.902 24.3179C207.946 22.3705 207.822 21.4845 207.477 21.2742C207.209 21.1113 204.447 21.0199 201.339 21.0708C194.913 21.1768 194.772 21.1113 194.938 18.1063L195.024 16.5443L200.516 16.3458L206.008 16.1473L205.85 13.2887L205.691 10.4301L200.212 10.4231L194.732 10.4165L194.71 9.15088C194.672 7.01819 195.491 6.7179 201.636 6.6106L206.953 6.51782L206.792 3.46399L206.631 0.410156L199.945 0.468384C196.267 0.50061 192.621 0.709229 191.841 0.932129ZM212.026 0.871704C211.324 1.59644 211.305 2.11926 211.519 14.4038L211.742 27.1821L215.456 27.1173L219.17 27.0525L219.08 21.8671L218.989 16.6816L220.753 16.6565C221.724 16.6425 222.936 16.8333 223.447 17.0803C224.373 17.5273 224.685 18.3511 226.575 25.3486L226.998 26.9159L230.698 26.8513C235.088 26.7747 234.928 27.111 233.346 21.2847C232.113 16.7412 231.44 15.141 230.567 14.6731C229.96 14.3469 229.984 14.2345 230.868 13.2581C233.3 10.5717 233.774 7.10291 232.128 4.04431C230.263 0.580078 227.904 -0.131958 218.791 0.0185547C213.247 0.109863 212.696 0.179443 212.026 0.871704ZM224.69 7.02332C225.332 7.6416 225.284 9.37268 224.606 10.0736C224.194 10.4979 223.303 10.6783 221.459 10.7106L218.886 10.7555L218.85 8.71838L218.815 6.68127L221.526 6.63391C223.139 6.60571 224.421 6.76343 224.69 7.02332ZM59.3585 15.1543C59.7155 16.749 60.0098 18.2029 60.0129 18.3848C60.0161 18.5667 59.2062 18.7297 58.213 18.7471L56.4069 18.7786L57.0372 15.8962C58.1378 10.8612 58.0566 11.1105 58.3989 11.7095C58.5698 12.0093 59.0018 13.5597 59.3585 15.1543Z" fill="#FFFFFF" fill-opacity="1.000000" fill-rule="evenodd"/>
</svg>
