<svg width="182.764420" height="58.980713" viewBox="0 0 182.764 58.9807" fill="none" xmlns="http://www.w3.org/2000/svg" xmlns:xlink="http://www.w3.org/1999/xlink">
	<desc>
			Created with Pixso.
	</desc>
	<defs/>
	<path id="path3008" d="M0.689056 42.6486L0.0142822 3.99084L6.72923 3.87366L7.40401 42.5314L0.689056 42.6486Z" fill="#FFFFFF" fill-opacity="1.000000" fill-rule="nonzero"/>
	<path id="path3010" d="M24.1033 14.1866C15.4939 14.3369 9.65286 21.1351 9.78661 28.7974C9.93587 37.3488 16.5202 43.1267 24.6729 42.9844C32.4103 42.8494 39.0237 36.9495 38.8722 28.2711C38.7449 20.9735 33.0582 14.0304 24.1033 14.1866ZM24.1386 20.7388C28.6442 20.6602 32.0224 24.149 32.0972 28.4325C32.1765 32.9741 28.5779 36.3511 24.534 36.4218C19.7557 36.5051 16.6817 32.7277 16.6117 28.7151C16.5349 24.3169 19.8699 20.8134 24.1386 20.7388Z" fill="#FFFFFF" fill-opacity="1.000000" fill-rule="nonzero"/>
	<path id="path3012" d="M55.4933 13.6387C46.8839 13.7889 41.0429 20.5872 41.1766 28.2494C41.3259 36.8008 47.9102 42.5787 56.0629 42.4364C63.8004 42.3014 70.4137 36.4015 70.2623 27.7231C70.173 22.6127 67.945 20.3834 67.945 20.3834L69.795 19.7054L69.6987 14.1942L60.1616 14.3607C60.1616 14.3607 58.08 13.5935 55.4933 13.6387ZM55.5286 20.1908C60.0342 20.1122 63.4125 23.6011 63.4872 27.8845C63.5665 32.4261 59.9679 35.8031 55.924 35.8738C51.1457 35.9572 48.0717 32.1797 48.0017 28.1671C47.9249 23.7689 51.2599 20.2654 55.5286 20.1908Z" fill="#FFFFFF" fill-opacity="1.000000" fill-rule="nonzero"/>
	<path id="path3014" d="M63.7112 43.4387C63.7905 47.9803 60.1923 51.382 56.1484 51.4525C51.3701 51.5359 48.2833 47.7218 48.2133 43.7092L41.401 43.8281C41.5503 52.3796 48.1346 58.1575 56.2873 58.0151C64.0247 57.8801 70.6384 51.9988 70.487 43.3204L63.7112 43.4387Z" fill="#FFFFFF" fill-opacity="1.000000" fill-rule="nonzero"/>
	<path id="path3016" d="M73.1912 41.3831L72.7157 14.1416L79.4306 14.0244L79.9061 41.2659L73.1912 41.3831Z" fill="#FFFFFF" fill-opacity="1.000000" fill-rule="nonzero"/>
	<path id="path3018" d="M86.4264 41.1521L86.0574 20.0125L82.4566 20.0753L82.3501 13.9735L85.9509 13.9106L85.8049 5.54529L92.5198 5.4281L92.6658 13.7935L96.3639 13.7289L96.4704 19.8307L92.7724 19.8953L93.1414 41.0349L86.4264 41.1521Z" fill="#FFFFFF" fill-opacity="1.000000" fill-rule="nonzero"/>
	<path id="path3020" d="M80.3707 6.26855C80.414 8.75208 78.4583 10.8 76.0025 10.8429C73.5467 10.8857 71.5208 8.90723 71.4774 6.42383C71.4341 3.94031 73.3897 1.89221 75.8456 1.84937C78.3013 1.80652 80.3273 3.78503 80.3707 6.26855Z" fill="#FFFFFF" fill-opacity="1.000000" fill-rule="nonzero"/>
	<path id="path3022" d="M111.446 12.6437C102.796 12.7947 97.3363 19.5897 97.4746 27.5128C97.6175 35.7006 103.318 41.6301 112.089 41.4771C120.272 41.3342 124.206 36.097 124.206 36.097L119.638 31.6299C119.638 31.6299 116.314 35.3857 112.069 35.4598C108.531 35.5216 105.668 33.574 104.617 29.9293L125.54 29.5641L125.508 27.6942C125.378 20.233 120.971 12.4774 111.446 12.6437ZM111.338 18.6261C114.431 18.5721 117.624 20.1904 118.401 24.1758L104.338 24.4213C104.846 21.6014 107.227 18.6979 111.338 18.6261Z" fill="#FFFFFF" fill-opacity="1.000000" fill-rule="nonzero"/>
	<path id="path3024" d="M142.541 40.949C133.866 41.1003 127.838 34.5221 127.701 26.6443C127.559 18.5143 134.132 12.2426 142.009 12.105C149.624 11.972 153.617 17.3406 153.617 17.3406L149.015 22.1379C149.015 22.1379 146.24 18.6399 142.093 18.7123C137.496 18.7925 134.415 22.4032 134.489 26.63C134.567 31.093 137.97 34.4589 142.314 34.3831C146.529 34.3094 149.159 30.7228 149.159 30.7228L153.972 35.3533C153.972 35.3533 150.206 40.8152 142.541 40.949Z" fill="#FFFFFF" fill-opacity="1.000000" fill-rule="nonzero"/>
	<path id="path3026" d="M156.496 39.9486L155.819 1.17285L162.534 1.05566L162.783 15.302C162.783 15.302 165.292 11.6986 170.885 11.601C177.916 11.4781 182.082 16.6929 182.2 23.4534L182.48 39.4951L175.765 39.6123L175.503 24.5969C175.424 20.0551 172.595 18.2196 169.497 18.2737C165.968 18.3353 162.872 20.421 162.955 25.1675L163.211 39.8314L156.496 39.9486Z" fill="#FFFFFF" fill-opacity="1.000000" fill-rule="nonzero"/>
</svg>
