<svg width="900.630005" height="871.390625" viewBox="0 0 900.63 871.391" fill="none" xmlns="http://www.w3.org/2000/svg" xmlns:xlink="http://www.w3.org/1999/xlink">
	<desc>
			Created with Pixso.
	</desc>
	<defs/>
	<path id="Vector 5" d="M190.857 201.527L104.223 564.567L633.221 788.504L738.162 529.352L190.857 201.527Z" fill="#FF3F62" fill-opacity="1.000000" fill-rule="evenodd"/>
	<path id="Polygon 3" d="M473.939 586.749L190.857 201.527L738.162 529.352L473.939 586.749Z" fill="#7B1527" fill-opacity="1.000000" fill-rule="nonzero"/>
	<path id="Polygon 4" d="M724.755 260.59L190.857 201.527L738.162 529.353L724.755 260.59Z" fill="#B3203A" fill-opacity="1.000000" fill-rule="nonzero"/>
	<path id="Polygon 5" d="M473.939 586.75L306.047 358.28L341.645 252.998L711.606 454.442L656.969 546.99L473.939 586.75Z" fill="#FFFFFF" fill-opacity="1.000000" fill-rule="nonzero"/>
	<path id="Vector 6" d="M363.054 303.296L358.924 335.919L653.975 491.568L663.434 478.295L363.054 303.296Z" fill="#E7E7E7" fill-opacity="1.000000" fill-rule="evenodd"/>
	<path id="Vector 7" d="M370.254 412.465L384.151 387.251L611.049 497.217L609.364 513.167L370.254 412.465Z" fill="#E7E7E7" fill-opacity="1.000000" fill-rule="evenodd"/>
</svg>
