<svg width="546.053650" height="543.962402" viewBox="0 0 546.054 543.962" fill="none" xmlns="http://www.w3.org/2000/svg" xmlns:xlink="http://www.w3.org/1999/xlink">
	<desc>
			Created with Pixso.
	</desc>
	<defs/>
	<path id="Vector 5" d="M400.131 104.533L491.993 309.376L204.452 500.969L113.407 359.571L400.131 104.533Z" fill="#FF3F62" fill-opacity="1.000000" fill-rule="evenodd"/>
	<path id="Polygon 3" d="M275.985 363.896L400.131 104.533L113.407 359.571L275.985 363.896Z" fill="#7B1527" fill-opacity="1.000000" fill-rule="nonzero"/>
	<path id="Polygon 4" d="M91.2271 199.238L400.131 104.533L113.407 359.571L91.2271 199.238Z" fill="#B3203A" fill-opacity="1.000000" fill-rule="nonzero"/>
	<path id="Polygon 5" d="M275.985 363.896L349.614 210.072L316.784 151.84L120.71 312.327L163.366 360.9L275.985 363.896Z" fill="#FFFFFF" fill-opacity="1.000000" fill-rule="nonzero"/>
	<path id="Vector 6" d="M309.766 183.962L315.861 202.779L158.927 327.812L151.85 321.027L309.766 183.962Z" fill="#E7E7E7" fill-opacity="1.000000" fill-rule="evenodd"/>
	<path id="Vector 7" d="M317.739 249.285L306.702 235.94L184.928 326.342L187.71 335.58L317.739 249.285Z" fill="#E7E7E7" fill-opacity="1.000000" fill-rule="evenodd"/>
</svg>
