<svg width="26.000000" height="26.000000" viewBox="0 0 26 26" fill="none" xmlns="http://www.w3.org/2000/svg" xmlns:xlink="http://www.w3.org/1999/xlink">
	<desc>
			Created with Pixso.
	</desc>
	<defs>
		<clipPath id="clip1_342">
			<rect id="logo-instagram (1) 1" width="26.000000" height="26.000000" fill="white" fill-opacity="0"/>
		</clipPath>
	</defs>
	<rect id="logo-instagram (1) 1" width="26.000000" height="26.000000" fill="#FFFFFF" fill-opacity="0"/>
	<g clip-path="url(#clip1_342)">
		<path id="Vector" d="M17.7394 3.52051C18.9954 3.52441 20.1988 4.0249 21.0869 4.91309C21.975 5.80127 22.4756 7.00439 22.4793 8.26074L22.4793 17.7393C22.4756 18.9956 21.975 20.1987 21.0869 21.0869C20.1988 21.9751 18.9954 22.4756 17.7394 22.4795L8.26059 22.4795C7.00464 22.4756 5.80119 21.9751 4.9131 21.0869C4.02501 20.1987 3.52441 18.9956 3.52066 17.7393L3.52066 8.26074C3.52441 7.00439 4.02501 5.80127 4.9131 4.91309C5.80119 4.0249 7.00464 3.52441 8.26059 3.52051L17.7394 3.52051ZM17.7394 1.625L8.26059 1.625C4.61093 1.625 1.625 4.61084 1.625 8.26074L1.625 17.7393C1.625 21.3892 4.61093 24.375 8.26059 24.375L17.7394 24.375C21.3891 24.375 24.375 21.3892 24.375 17.7393L24.375 8.26074C24.375 4.61084 21.3891 1.625 17.7394 1.625Z" fill="#000000" fill-opacity="1.000000" fill-rule="nonzero"/>
		<path id="Vector" d="M19.1613 8.26074C18.8801 8.26074 18.6052 8.17725 18.3713 8.021C18.1375 7.86475 17.9553 7.64258 17.8477 7.38281C17.74 7.12305 17.7119 6.8374 17.7667 6.56152C17.8216 6.28564 17.957 6.03223 18.1559 5.8335C18.3547 5.63477 18.6081 5.49902 18.8839 5.44434C19.1597 5.38965 19.4456 5.41748 19.7054 5.52539C19.9652 5.63281 20.1873 5.81494 20.3435 6.04883C20.4998 6.28271 20.5832 6.55762 20.5832 6.83887C20.5836 7.02588 20.5471 7.21094 20.4758 7.3833C20.4044 7.55615 20.2997 7.71289 20.1676 7.84521C20.0355 7.97705 19.8786 8.08203 19.7059 8.15332C19.5332 8.22461 19.3481 8.26123 19.1613 8.26074ZM13 9.2085C13.75 9.2085 14.4831 9.43066 15.1066 9.84717C15.7302 10.2642 16.2162 10.8564 16.5032 11.5493C16.7902 12.2422 16.8653 13.0044 16.719 13.7397C16.5727 14.4756 16.2115 15.1509 15.6812 15.6812C15.1509 16.2119 14.4753 16.5728 13.7397 16.7192C13.0042 16.8652 12.2418 16.7905 11.5489 16.5034C10.8561 16.2163 10.2639 15.7305 9.84721 15.1069C9.43056 14.4834 9.20816 13.75 9.20816 13C9.20924 11.9946 9.60909 11.0308 10.32 10.3203C11.0308 9.60938 11.9947 9.20947 13 9.2085ZM13 7.3125C11.8751 7.3125 10.7755 7.646 9.84019 8.271C8.90489 8.896 8.17592 9.78418 7.74544 10.8237C7.31497 11.8628 7.20233 13.0063 7.42178 14.1099C7.64124 15.2129 8.18292 16.2266 8.97833 17.022C9.77374 17.8174 10.7872 18.3589 11.8904 18.5786C12.9937 18.7979 14.1373 18.6851 15.1765 18.2549C16.2158 17.8242 17.104 17.0952 17.729 16.1602C18.3539 15.2246 18.6875 14.125 18.6875 13C18.6875 11.4917 18.0883 10.0449 17.0217 8.97852C15.9551 7.91211 14.5084 7.3125 13 7.3125Z" fill="#000000" fill-opacity="1.000000" fill-rule="nonzero"/>
	</g>
</svg>
