<svg width="22.750000" height="22.613281" viewBox="0 0 22.75 22.6133" fill="none" xmlns="http://www.w3.org/2000/svg" xmlns:xlink="http://www.w3.org/1999/xlink">
	<desc>
			Created with Pixso.
	</desc>
	<defs/>
	<path id="Vector" d="M22.75 11.375C22.75 5.09326 17.6566 0 11.375 0C5.09335 0 0 5.09326 0 11.375C0 17.0522 4.159 21.7583 9.59766 22.6123L9.59766 14.6641L6.70871 14.6641L6.70871 11.375L9.59766 11.375L9.59766 8.86914C9.59766 6.01855 11.2963 4.44287 13.8943 4.44287C15.1389 4.44287 16.4409 4.66504 16.4409 4.66504L16.4409 7.46484L15.0059 7.46484C13.5936 7.46484 13.1518 8.34131 13.1518 9.24219L13.1518 11.375L16.3064 11.375L15.8026 14.6641L13.1523 14.6641L13.1523 22.6133C18.591 21.7598 22.75 17.0537 22.75 11.375Z" fill="#000000" fill-opacity="1.000000" fill-rule="evenodd"/>
</svg>
