<svg width="23.000000" height="18.000000" viewBox="0 0 23 18" fill="none" xmlns="http://www.w3.org/2000/svg" xmlns:xlink="http://www.w3.org/1999/xlink">
	<desc>
			Created with Pixso.
	</desc>
	<defs/>
	<path id="Vector" d="M1.41135 7.83936L15.1108 2.49609C16.4631 1.93994 21.0493 0.158691 21.0493 0.158691C21.0493 0.158691 23.166 -0.620117 22.9896 1.27197C22.9307 2.05078 22.4606 4.77832 21.99 7.72754L20.5202 16.4653C20.5202 16.4653 20.4026 17.7456 19.4013 17.9678C18.4001 18.1904 16.7556 17.189 16.4618 16.9663C16.2266 16.7993 12.052 14.2949 10.5232 13.0703C10.1116 12.7368 9.64136 12.0684 10.5821 11.2896C12.6988 9.45312 15.2271 7.1709 16.7556 5.72412C17.4611 5.05615 18.1667 3.49805 15.2269 5.39014L6.93674 10.6772C6.93674 10.6772 5.99585 11.2339 4.23212 10.7329C2.46835 10.2324 0.410461 9.56445 0.410461 9.56445C0.410461 9.56445 -1.00067 8.72949 1.41 7.83936L1.41135 7.83936Z" fill="#000000" fill-opacity="1.000000" fill-rule="nonzero"/>
</svg>
