<svg width="24.375000" height="19.500000" viewBox="0 0 24.375 19.5" fill="none" xmlns="http://www.w3.org/2000/svg" xmlns:xlink="http://www.w3.org/1999/xlink">
	<desc>
			Created with Pixso.
	</desc>
	<defs/>
	<path id="Vector" d="M24.375 2.31055C23.4607 2.70801 22.4933 2.96973 21.5033 3.0874C22.5437 2.47852 23.326 1.51074 23.7037 0.365723C22.7201 0.940918 21.6458 1.34424 20.5268 1.55908C20.0556 1.06494 19.4889 0.672363 18.8611 0.404297C18.2334 0.13623 17.5577 -0.00146484 16.8751 0C14.1116 0 11.8752 2.2041 11.8752 4.9209C11.8732 5.29883 11.9165 5.67529 12.0042 6.04297C10.0225 5.9502 8.08209 5.44434 6.30701 4.55859C4.53195 3.67285 2.9613 2.42627 1.69559 0.898926C1.25156 1.64746 1.01669 2.50146 1.01562 3.37207C1.01562 5.07812 1.90582 6.58643 3.25 7.46973C2.45361 7.45117 1.67355 7.24023 0.976013 6.85547L0.976013 6.9165C0.976013 9.30322 2.70258 11.2886 4.98773 11.7407C4.55801 11.855 4.1152 11.9131 3.67047 11.9131C3.35489 11.9141 3.04007 11.8833 2.7305 11.8218C3.36578 13.7769 5.21472 15.1987 7.40491 15.2393C5.62524 16.6108 3.44025 17.3525 1.19336 17.3467C0.794525 17.3462 0.396088 17.3228 0 17.2759C2.28577 18.7354 4.94278 19.5073 7.65475 19.5C16.8644 19.5 21.8959 11.9995 21.8959 5.49463C21.8959 5.28125 21.8903 5.06787 21.8801 4.85986C22.8567 4.16504 23.7015 3.30176 24.375 2.31055Z" fill="#000000" fill-opacity="1.000000" fill-rule="nonzero"/>
</svg>
