<svg width="24.374969" height="14.625000" viewBox="0 0 24.375 14.625" fill="none" xmlns="http://www.w3.org/2000/svg" xmlns:xlink="http://www.w3.org/1999/xlink">
	<desc>
			Created with Pixso.
	</desc>
	<defs/>
	<path id="Vector" d="M23.8012 1.01562C23.982 0.442871 23.8012 0.0263672 23.0014 0.0263672L20.3419 0.0263672C19.6711 0.0263672 19.3614 0.391113 19.1806 0.78125C19.1806 0.78125 17.8125 4.1123 15.9022 6.27197C15.2826 6.89648 14.9987 7.10498 14.6631 7.10498C14.4823 7.10498 14.2497 6.89648 14.2497 6.32422L14.2497 0.98877C14.2497 0.3125 14.0435 0 13.4753 0L9.29297 0C8.87961 0 8.62164 0.3125 8.62164 0.624512C8.62164 1.2749 9.57684 1.43164 9.67993 3.25293L9.67993 7.21094C9.67993 8.06982 9.52759 8.22656 9.18936 8.22656C8.28598 8.22656 6.09171 4.86963 4.77548 1.04395C4.51953 0.286621 4.25952 0 3.5882 0L0.903412 0C0.128998 0 0 0.364258 0 0.754395C0 1.45752 0.903412 4.99658 4.20773 9.68066C6.40198 12.8799 9.52554 14.5991 12.3393 14.5991C14.0435 14.5991 14.2497 14.2085 14.2497 13.5581L14.2497 11.1377C14.2497 10.3574 14.4046 10.2275 14.947 10.2275C15.3339 10.2275 16.0311 10.4351 17.6059 11.9707C19.4127 13.792 19.7224 14.625 20.7294 14.625L23.3883 14.625C24.1627 14.625 24.5243 14.2344 24.3176 13.48C24.0855 12.7251 23.2076 11.6323 22.0716 10.3315C21.452 9.60303 20.5227 8.79639 20.2389 8.40576C19.8519 7.88525 19.955 7.67725 20.2389 7.20898C20.213 7.20898 23.466 2.57666 23.8012 1.01367L23.8012 1.01562Z" fill="#000000" fill-opacity="1.000000" fill-rule="evenodd"/>
</svg>
