<svg width="1320.000000" height="417.000000" viewBox="0 0 1320 417" fill="none" xmlns="http://www.w3.org/2000/svg" xmlns:xlink="http://www.w3.org/1999/xlink">
	<desc>
			Created with Pixso.
	</desc>
	<defs>
		<clipPath id="clip1_357">
			<rect id="heart-circle (1) 1" width="72.000000" height="72.000000" transform="translate(180.000000 72.000000)" fill="white" fill-opacity="0"/>
		</clipPath>
		<clipPath id="clip1_345">
			<rect id="Frame 25" width="1320.000000" height="417.000000" fill="white" fill-opacity="0"/>
		</clipPath>
		<radialGradient id="paint_radial_1_346_0" cx="0.000000" cy="0.000000" r="1.000000" gradientUnits="userSpaceOnUse" gradientTransform="translate(660.5 209) rotate(90) scale(313.5 993.126)">
			<stop stop-color="#404040"/>
			<stop offset="1.000000" stop-color="#404040" stop-opacity="0.000000"/>
		</radialGradient>
	</defs>
	<rect id="Frame 25" width="1320.000000" height="417.000000" fill="#000000" fill-opacity="1.000000"/>
	<g clip-path="url(#clip1_345)">
		<path id="Vector" d="M210 417L210 348L63 348L63 417L60 417L60 348L0 348L0 345L60 345L60 208L1 208L1 205L60 205L60 68.0001L0 68.0001L0 65.0001L60 65.0001L60 1L63 1L63 65.0001L210 65.0001L210 0L213 0L213 65.0001L360 65.0001L360 1L363 1L363 65.0001L510 65.0001L510 1L513 1L513 65.0001L660 65.0001L660 0L663 0L663 65.0001L810 65.0001L810 1L813 1L813 65.0001L960 65.0001L960 1L963 1L963 65.0001L1110 65L1110 0L1113 0L1113 65L1260 65L1260 1L1263 1L1263 65L1320 65L1320 68L1263 68L1263 205L1321 205L1321 208L1263 208L1263 345L1320 345L1320 348L1263 348L1263 417L1260 417L1260 348L1113 348L1113 417L1110 417L1110 348L963 348L963 417L960 417L960 348L813 348L813 417L810 417L810 348L663 348L663 417L660 417L660 348L513 348L513 417L510 417L510 348L363 348L363 417L360 417L360 348L213 348L213 417L210 417ZM210 345L210 208L63 208L63 345L210 345ZM210 205L210 68.0001L63 68.0001L63 205L210 205ZM213 68.0001L213 205L360 205L360 68.0001L213 68.0001ZM213 208L213 345L360 345L360 208L213 208ZM660 345L660 208L513 208L513 345L660 345ZM660 205L660 68.0001L513 68.0001L513 205L660 205ZM663 68.0001L663 205L810 205L810 68.0001L663 68.0001ZM663 208L663 345L810 345L810 208L663 208ZM1110 345L1110 208L963 208L963 345L1110 345ZM1110 205L1110 68L963 68.0001L963 205L1110 205ZM1113 68L1113 205L1260 205L1260 68L1113 68ZM1113 208L1113 345L1260 345L1260 208L1113 208ZM363 68.0001L363 205L510 205L510 68.0001L363 68.0001ZM363 208L363 345L510 345L510 208L363 208ZM813 68.0001L813 205L960 205L960 68.0001L813 68.0001ZM813 208L813 345L960 345L960 208L813 208Z" fill="url(#paint_radial_1_346_0)" fill-opacity="1.000000" fill-rule="evenodd"/>
		<path id="Vector 8" d="M258 417L386.5 247.751L449.5 247.751L494 170.118L705 170.118L763.5 65L923 65" stroke="#FF3F62" stroke-opacity="1.000000" stroke-width="5.000000"/>
		<path id="Vector 9" d="M258 417L386.586 247.751L449.628 247.751L494.158 170.118L705.299 170.118L763.838 65L923.444 65L1007 417L258 417Z" fill="#FF3F62" fill-opacity="0.200000" fill-rule="evenodd"/>
		<path id="Rectangle 24" d="M607 0L674.5 0L512 417L436 417L607 0Z" fill="#FFFFFF" fill-opacity="1.000000" fill-rule="nonzero"/>
		<circle id="Ellipse 6" cx="494.000000" cy="169.000000" r="10.000000" fill="#FFFFFF" fill-opacity="1.000000"/>
		<circle id="Ellipse 6" cx="494.000000" cy="169.000000" r="12.500000" stroke="#000000" stroke-opacity="1.000000" stroke-width="5.000000"/>
		<path id="100.000+" d="M163.895 287.023L125.778 284.524L65.79 308.817L50.7863 341.618L106.186 319.382L107.345 319.458L43.4385 459.171L83.9381 461.825L163.895 287.023ZM214.876 474.336C263.166 477.501 307.568 445.962 333.99 388.344C360.261 331.2 345.775 296.466 297.678 293.313C249.581 290.161 205.399 320.929 179.138 378.194C152.668 435.628 166.612 471.112 214.876 474.336ZM228.886 443.706C206.93 442.267 201.907 421.207 220.41 380.9C238.619 341.237 261.91 322.215 283.801 323.65C305.629 325.081 310.733 345.964 292.589 385.63C274.278 425.951 250.842 445.145 228.886 443.706ZM408.246 487.01C456.536 490.175 500.938 458.636 527.36 401.018C553.631 343.874 539.146 309.14 491.048 305.987C442.951 302.835 398.769 333.603 372.508 390.869C346.038 448.302 359.982 483.786 408.246 487.01ZM422.256 456.38C400.3 454.941 395.277 433.882 413.781 393.574C431.989 353.911 455.28 334.889 477.172 336.324C498.999 337.755 504.103 358.638 485.959 398.305C467.648 438.625 444.213 457.819 422.256 456.38ZM542.964 494.208C555.004 494.997 569.558 486.523 574.867 475.206C579.864 463.99 573.658 454.216 561.618 453.427C549.255 452.616 534.922 461.045 529.86 472.257C524.615 483.577 530.601 493.398 542.964 494.208ZM676.232 504.575C724.523 507.74 768.925 476.201 795.347 418.583C821.618 361.439 807.132 326.705 759.035 323.552C710.937 320.4 666.755 351.167 640.495 408.433C614.025 465.867 627.969 501.351 676.232 504.575ZM690.243 473.945C668.287 472.506 663.264 451.446 681.767 411.138C699.976 371.476 723.267 352.454 745.158 353.889C766.986 355.319 772.09 376.203 753.945 415.869C735.635 456.19 712.199 475.384 690.243 473.945ZM869.603 517.249C917.893 520.414 962.295 488.875 988.717 431.257C1014.99 374.113 1000.5 339.379 952.405 336.226C904.307 333.074 860.126 363.842 833.865 421.108C807.395 478.541 821.339 514.025 869.603 517.249ZM883.613 486.619C861.657 485.18 856.634 464.12 875.137 423.813C893.346 384.15 916.637 365.128 938.528 366.563C960.356 367.994 965.46 388.877 947.316 428.543C929.005 468.864 905.569 488.058 883.613 486.619ZM1062.97 529.923C1111.26 533.088 1155.67 501.549 1182.09 443.931C1208.36 386.787 1193.87 352.053 1145.78 348.9C1097.68 345.748 1053.5 376.516 1027.24 433.782C1000.77 491.215 1014.71 526.699 1062.97 529.923ZM1076.98 499.293C1055.03 497.854 1050 476.795 1068.51 436.487C1086.72 396.824 1110.01 377.802 1131.9 379.237C1153.73 380.668 1158.83 401.551 1140.69 441.218C1122.38 481.538 1098.94 500.732 1076.98 499.293ZM1252.44 510.974L1285.92 513.169L1306.56 468.045L1356.14 471.295L1370.12 440.723L1320.54 437.474L1341.18 392.35L1307.7 390.155L1287.06 435.279L1237.48 432.03L1223.5 462.601L1273.08 465.851L1252.44 510.974Z" fill="#FFFFFF" fill-opacity="1.000000" fill-rule="evenodd"/>
		<path id="500000" d="M905.715 173.499C932.188 165.658 956.688 143.593 965.693 120.291C974.39 98.1434 964.669 86.9695 943.26 93.3114C932.854 96.3937 922.198 103.286 915.794 110.222L915.116 110.423L929.444 80.6085L981.353 65.2321L989.125 45.2778L916.523 66.7834L887.194 129.319L908.012 126.58C913.496 120.74 921.755 115.654 928.772 113.576C940.677 110.083 946.014 115.94 941.291 128.068C936.628 140.04 924.986 150.824 913.185 154.32C903.217 157.272 897.533 153.575 900.461 144.79L876.101 152.005C868.768 171.83 881.155 180.774 905.715 173.499ZM1021.15 140.13C1051.05 131.272 1077.67 103.849 1092.53 65.7883C1107.31 28.0257 1097.48 11.7754 1067.7 20.5973C1037.92 29.4192 1011.41 56.3625 996.644 94.1908C981.75 132.159 991.258 148.948 1021.15 140.13ZM1029.02 119.904C1015.43 123.931 1011.79 113.251 1022.2 86.6207C1032.44 60.4164 1046.34 44.6445 1059.9 40.6291C1073.41 36.6256 1077.09 47.1894 1066.89 73.382C1056.61 99.9771 1042.62 115.877 1029.02 119.904ZM1140.88 104.662C1170.78 95.805 1197.41 68.3815 1212.27 30.3208C1227.04 -7.44174 1217.22 -23.6921 1187.44 -14.8702C1157.65 -6.04826 1131.15 20.8951 1116.38 58.7233C1101.49 96.6914 1110.99 113.481 1140.88 104.662ZM1148.76 84.4367C1135.16 88.4638 1131.53 77.7838 1141.94 51.1533C1152.18 24.9489 1166.08 9.17702 1179.63 5.16169C1193.15 1.15818 1196.83 11.722 1186.63 37.9145C1176.34 64.5096 1162.35 80.4096 1148.76 84.4367ZM1260.62 69.1948C1290.52 60.3375 1317.14 32.9141 1332 -5.14663C1346.78 -42.9092 1336.96 -59.1595 1307.17 -50.3376C1277.39 -41.5157 1250.88 -14.5724 1236.12 23.2559C1221.22 61.224 1230.73 78.0134 1260.62 69.1948ZM1268.49 48.9693C1254.9 52.9964 1251.26 42.3164 1261.67 15.6858C1271.91 -10.5185 1285.82 -26.2904 1299.37 -30.3058C1312.89 -34.3093 1316.57 -23.7455 1306.37 2.44706C1296.08 29.0422 1282.09 44.9421 1268.49 48.9693ZM1380.35 33.7274C1410.26 24.8701 1436.88 -2.55337 1451.74 -40.6141C1466.52 -78.3766 1456.69 -94.627 1426.91 -85.8051C1397.13 -76.9832 1370.62 -50.0398 1355.85 -12.2116C1340.96 25.7565 1350.47 42.546 1380.35 33.7274ZM1388.23 13.5018C1374.64 17.5289 1371 6.84891 1381.41 -19.7816C1391.65 -45.986 1405.55 -61.7579 1419.11 -65.7732C1432.62 -69.7767 1436.3 -59.2129 1426.1 -33.0204C1415.81 -6.42528 1401.83 9.47467 1388.23 13.5018ZM1500.09 -1.74005C1529.99 -10.5974 1556.61 -38.0208 1571.47 -76.0815C1586.25 -113.844 1576.43 -130.094 1546.65 -121.273C1516.86 -112.451 1490.36 -85.5073 1475.59 -47.679C1460.69 -9.71092 1470.2 7.07854 1500.09 -1.74005ZM1507.97 -21.9656C1494.37 -17.9385 1490.74 -28.6185 1501.14 -55.2491C1511.39 -81.4534 1525.29 -97.2253 1538.84 -101.241C1552.36 -105.244 1556.04 -94.6804 1545.84 -68.4878C1535.55 -41.8927 1521.56 -25.9928 1507.97 -21.9656Z" fill="#FFFFFF" fill-opacity="1.000000" fill-rule="evenodd"/>
		<path id="Subtract" d="M0 8.96179L0 72L185 316.5L143.5 0L100.892 0L132 181L0 8.96179Z" fill="#FF3F62" fill-opacity="1.000000" fill-rule="nonzero"/>
		<path id="Rectangle 7" d="M1391.77 486.542L1128.44 631.499L834 250.817L1322.11 359.998L1391.77 486.542Z" fill="#FF3F62" fill-opacity="1.000000" fill-rule="nonzero"/>
		<path id="Subtract" d="M1320.5 90.0609L1155.13 137.063L1299 0L1248.5 0L1083.5 179L1320.5 143.5L1320.5 90.0609Z" fill="#FF3F62" fill-opacity="1.000000" fill-rule="nonzero"/>
		<path id="20.000+" d="M268.766 131L301.953 131L301.953 122.953L282.406 122.953L282.406 122.641L289.203 115.984C298.766 107.25 301.344 102.891 301.344 97.5938C301.344 89.5156 294.75 83.8125 284.766 83.8125C275 83.8125 268.297 89.6562 268.312 98.7969L277.656 98.7969C277.641 94.3438 280.453 91.6094 284.703 91.6094C288.797 91.6094 291.844 94.1562 291.844 98.25C291.844 101.953 289.562 104.5 285.344 108.562L268.766 123.906L268.766 131ZM327.334 132.016C339.053 132.016 346.115 123.109 346.131 107.766C346.162 92.5469 339.006 83.8125 327.334 83.8125C315.662 83.8125 308.568 92.5156 308.553 107.766C308.506 123.062 315.615 132 327.334 132.016ZM327.334 123.859C322.006 123.859 318.553 118.5 318.568 107.766C318.584 97.2031 322.021 91.8906 327.334 91.8906C332.631 91.8906 336.084 97.2031 336.084 107.766C336.115 118.5 332.662 123.859 327.334 123.859ZM356.97 131.594C359.892 131.594 362.408 129.156 362.439 126.141C362.408 123.156 359.892 120.734 356.97 120.734C353.97 120.734 351.501 123.156 351.517 126.141C351.501 129.156 353.97 131.594 356.97 131.594ZM386.607 132.016C398.325 132.016 405.388 123.109 405.403 107.766C405.435 92.5469 398.278 83.8125 386.607 83.8125C374.935 83.8125 367.841 92.5156 367.825 107.766C367.778 123.062 374.888 132 386.607 132.016ZM386.607 123.859C381.278 123.859 377.825 118.5 377.841 107.766C377.857 97.2031 381.294 91.8906 386.607 91.8906C391.903 91.8906 395.357 97.2031 395.357 107.766C395.388 118.5 391.935 123.859 386.607 123.859ZM430.652 132.016C442.371 132.016 449.433 123.109 449.449 107.766C449.48 92.5469 442.324 83.8125 430.652 83.8125C418.98 83.8125 411.886 92.5156 411.871 107.766C411.824 123.062 418.933 132 430.652 132.016ZM430.652 123.859C425.324 123.859 421.871 118.5 421.886 107.766C421.902 97.2031 425.339 91.8906 430.652 91.8906C435.949 91.8906 439.402 97.2031 439.402 107.766C439.433 118.5 435.98 123.859 430.652 123.859ZM474.697 132.016C486.416 132.016 493.479 123.109 493.494 107.766C493.526 92.5469 486.369 83.8125 474.697 83.8125C463.026 83.8125 455.932 92.5156 455.916 107.766C455.869 123.062 462.979 132 474.697 132.016ZM474.697 123.859C469.369 123.859 465.916 118.5 465.932 107.766C465.947 97.2031 469.385 91.8906 474.697 91.8906C479.994 91.8906 483.447 97.2031 483.447 107.766C483.479 118.5 480.026 123.859 474.697 123.859ZM514.415 123.906L522.54 123.906L522.54 111.891L534.571 111.891L534.571 103.75L522.54 103.75L522.54 91.7344L514.415 91.7344L514.415 103.75L502.384 103.75L502.384 111.891L514.415 111.891L514.415 123.906Z" fill="#FFFFFF" fill-opacity="1.000000" fill-rule="evenodd"/>
		<rect id="heart-circle (1) 1" width="72.000000" height="72.000000" transform="translate(180.000000 72.000000)" fill="#FFFFFF" fill-opacity="0"/>
		<g clip-path="url(#clip1_357)">
			<path id="Vector" d="M216 78.75C199.872 78.75 186.75 91.8717 186.75 108C186.75 124.128 199.872 137.25 216 137.25C232.128 137.25 245.25 124.128 245.25 108C245.25 91.8717 232.128 78.75 216 78.75ZM226.503 114.303C225.184 115.912 222.791 118.484 217.264 122.235C216.891 122.491 216.45 122.627 215.999 122.627C215.547 122.627 215.106 122.491 214.733 122.235C209.206 118.484 206.813 115.907 205.494 114.303C202.681 110.876 201.334 107.356 201.374 103.545C201.417 99.1772 204.92 95.6236 209.182 95.6236C212.051 95.6236 214.104 97.1184 215.384 98.4938C215.463 98.5771 215.558 98.6436 215.663 98.689C215.769 98.7344 215.882 98.7579 215.997 98.7579C216.112 98.7579 216.226 98.7344 216.331 98.689C216.436 98.6436 216.531 98.5771 216.61 98.4938C217.891 97.1184 219.943 95.6236 222.812 95.6236C227.074 95.6236 230.577 99.1772 230.621 103.545C230.663 107.356 229.314 110.876 226.503 114.303Z" fill="#FFFFFF" fill-opacity="1.000000" fill-rule="nonzero"/>
		</g>
		<path id="Rectangle 25" d="M973.794 0L907 0L999.374 417L1071 417L973.794 0Z" fill="#FFFFFF" fill-opacity="1.000000" fill-rule="nonzero"/>
	</g>
</svg>
