<svg width="62.000000" height="36.000000" viewBox="0 0 62 36" fill="none" xmlns="http://www.w3.org/2000/svg" xmlns:xlink="http://www.w3.org/1999/xlink">
	<desc>
			Created with Pixso.
	</desc>
	<defs>
		<clipPath id="clip1_108">
			<rect id="Frame 6" rx="9.000000" width="61.000000" height="35.000000" transform="translate(0.500000 0.500000)" fill="white" fill-opacity="0"/>
		</clipPath>
	</defs>
	<g clip-path="url(#clip1_108)">
		<path id="Игры" d="M11.1484 12.3633L11.1484 24L13.0156 24L18.5039 16.0742L18.6016 16.0742L18.6016 24L20.7109 24L20.7109 12.3633L18.8164 12.3633L13.3477 20.2969L13.2383 20.2969L13.2383 12.3633L11.1484 12.3633ZM28.6804 15.2734L22.9109 15.2734L22.9109 24L24.9187 24L24.9187 16.9609L28.6804 16.9609L28.6804 15.2734ZM30.3256 27.2734L32.3803 27.2734L32.3803 22.625L32.4663 22.625C32.7905 23.2617 33.4663 24.1523 34.9663 24.1523C37.021 24.1523 38.5639 22.5234 38.5639 19.6484C38.5639 16.7383 36.978 15.1602 34.9585 15.1602C33.4194 15.1602 32.7788 16.0859 32.4663 16.7148L32.3452 16.7148L32.3452 15.2734L30.3256 15.2734L30.3256 27.2734ZM32.3413 19.6367C32.3413 17.9414 33.0678 16.8477 34.392 16.8477C35.7631 16.8477 36.4663 18.0117 36.4663 19.6367C36.4663 21.2734 35.7514 22.4648 34.392 22.4648C33.0795 22.4648 32.3413 21.3281 32.3413 19.6367ZM42.3004 18.1133L42.3004 15.2734L40.32 15.2734L40.32 24L44.2848 24C46.5075 24 47.7848 22.7734 47.7887 21.0586C47.7848 19.2969 46.5075 18.1133 44.2848 18.1133L42.3004 18.1133ZM48.8746 24L50.9332 24L50.9332 15.2734L48.8746 15.2734L48.8746 24ZM42.3004 19.8008L44.2848 19.8008C45.1754 19.8008 45.82 20.3281 45.82 21.0859C45.82 21.8086 45.1754 22.3125 44.2848 22.3125L42.3004 22.3125L42.3004 19.8008Z" fill="#FF3F62" fill-opacity="1.000000" fill-rule="evenodd"/>
	</g>
	<rect id="Frame 6" rx="9.000000" width="61.000000" height="35.000000" transform="translate(0.500000 0.500000)" stroke="#FF3F62" stroke-opacity="1.000000" stroke-width="1.000000"/>
</svg>
