<svg width="136.000000" height="36.000000" viewBox="0 0 136 36" fill="none" xmlns="http://www.w3.org/2000/svg" xmlns:xlink="http://www.w3.org/1999/xlink">
	<desc>
			Created with Pixso.
	</desc>
	<defs>
		<clipPath id="clip1_110">
			<rect id="Frame 7" rx="9.000000" width="135.000000" height="35.000000" transform="translate(0.500000 0.500000)" fill="white" fill-opacity="0"/>
		</clipPath>
	</defs>
	<g clip-path="url(#clip1_110)">
		<path id="Коллабарация" d="M18.1211 24L20.7148 24L15.9219 17.6719L20.5156 12.3633L17.9219 12.3633L13.7852 17.1484L13.2539 17.1484L13.2539 12.3633L11.1484 12.3633L11.1484 24L13.2539 24L13.2539 18.9141L14.2891 18.9141L18.1211 24ZM25.2212 24.1719C27.7798 24.1719 29.4048 22.3711 29.4048 19.6719C29.4048 16.9648 27.7798 15.1602 25.2212 15.1602C22.6665 15.1602 21.0415 16.9648 21.0415 19.6719C21.0415 22.3711 22.6665 24.1719 25.2212 24.1719ZM25.233 22.5234C23.8189 22.5234 23.1236 21.2617 23.1236 19.6641C23.1236 18.0664 23.8189 16.7891 25.233 16.7891C26.6236 16.7891 27.3189 18.0664 27.3189 19.6641C27.3189 21.2617 26.6236 22.5234 25.233 22.5234ZM30.5384 24L31.1751 24C33.0501 24 33.8977 22.6836 34.0344 19.7734L34.1712 16.9609L36.6751 16.9609L36.6751 24L38.6634 24L38.6634 15.2734L32.3001 15.2734L32.1477 19.1367C32.0501 21.5859 31.7337 22.3086 30.8313 22.3086L30.5266 22.3086L30.5384 24ZM40.1349 24L40.7717 24C42.6467 24 43.4943 22.6836 43.631 19.7734L43.7678 16.9609L46.2717 16.9609L46.2717 24L48.2599 24L48.2599 15.2734L41.8967 15.2734L41.7443 19.1367C41.6467 21.5859 41.3303 22.3086 40.4279 22.3086L40.1232 22.3086L40.1349 24ZM52.8448 24.1758C54.2159 24.1758 55.0323 23.5352 55.4073 22.8008L55.4776 22.8008L55.4776 24L57.4542 24L57.4542 18.1602C57.4542 15.8516 55.5753 15.1602 53.9073 15.1602C52.0753 15.1602 50.6651 15.9766 50.212 17.5664L52.13 17.8398C52.337 17.2461 52.9151 16.7344 53.919 16.7344C54.8761 16.7344 55.3995 17.2227 55.3995 18.0781L55.3995 18.1133C55.3995 18.7031 54.7784 18.7344 53.2393 18.8984C51.544 19.0781 49.9268 19.5859 49.9268 21.5508C49.9268 23.2656 51.1808 24.1758 52.8448 24.1758ZM53.38 22.6641C52.5245 22.6641 51.9073 22.2734 51.9073 21.5156C51.9073 20.7266 52.5948 20.3984 53.5167 20.2656C54.0558 20.1914 55.1378 20.0586 55.4034 19.8398L55.4034 20.8711C55.4034 21.8398 54.6183 22.6641 53.38 22.6641ZM66.5224 12.0469C66.1005 12.3633 65.4364 12.3594 64.5341 12.3594C64.2802 12.3594 64.0107 12.3594 63.7216 12.3633C60.7177 12.4023 59.1708 14.4023 59.1708 18.5039L59.1708 19.2891C59.1708 22.4844 60.7841 24.1719 63.3232 24.1719C65.8622 24.1719 67.4677 22.4766 67.4677 19.7852C67.4677 17.1719 65.9443 15.6641 63.7802 15.6641C62.4482 15.6641 61.4443 16.2383 60.8974 17.3086L60.7997 17.3086C61.0068 15.1289 61.8232 14.1484 63.7802 14.1016C65.5107 14.0625 66.4833 14.0352 67.2372 13.375L66.5224 12.0469ZM63.3349 22.5234C62.0458 22.5234 61.2568 21.4883 61.2568 19.8398C61.2724 18.2148 62.0497 17.2852 63.3232 17.2852C64.5966 17.2852 65.3818 18.2148 65.3818 19.8398C65.3818 21.4961 64.6005 22.5234 63.3349 22.5234ZM71.7312 24.1758C73.1023 24.1758 73.9187 23.5352 74.2937 22.8008L74.364 22.8008L74.364 24L76.3406 24L76.3406 18.1602C76.3406 15.8516 74.4617 15.1602 72.7937 15.1602C70.9617 15.1602 69.5515 15.9766 69.0984 17.5664L71.0163 17.8398C71.2234 17.2461 71.8015 16.7344 72.8054 16.7344C73.7624 16.7344 74.2859 17.2227 74.2859 18.0781L74.2859 18.1133C74.2859 18.7031 73.6648 18.7344 72.1257 18.8984C70.4304 19.0781 68.8132 19.5859 68.8132 21.5508C68.8132 23.2656 70.0671 24.1758 71.7312 24.1758ZM72.2663 22.6641C71.4109 22.6641 70.7937 22.2734 70.7937 21.5156C70.7937 20.7266 71.4812 20.3984 72.4031 20.2656C72.9421 20.1914 74.0242 20.0586 74.2898 19.8398L74.2898 20.8711C74.2898 21.8398 73.5046 22.6641 72.2663 22.6641ZM78.4166 27.2734L80.4712 27.2734L80.4712 22.625L80.5572 22.625C80.8814 23.2617 81.5572 24.1523 83.0572 24.1523C85.1119 24.1523 86.6548 22.5234 86.6548 19.6484C86.6548 16.7383 85.0689 15.1602 83.0494 15.1602C81.5103 15.1602 80.8697 16.0859 80.5572 16.7148L80.4361 16.7148L80.4361 15.2734L78.4166 15.2734L78.4166 27.2734ZM80.4322 19.6367C80.4322 17.9414 81.1587 16.8477 82.483 16.8477C83.8541 16.8477 84.5572 18.0117 84.5572 19.6367C84.5572 21.2734 83.8423 22.4648 82.483 22.4648C81.1705 22.4648 80.4322 21.3281 80.4322 19.6367ZM90.9187 24.1758C92.2898 24.1758 93.1062 23.5352 93.4812 22.8008L93.5515 22.8008L93.5515 24L95.5281 24L95.5281 18.1602C95.5281 15.8516 93.6492 15.1602 91.9812 15.1602C90.1492 15.1602 88.739 15.9766 88.2859 17.5664L90.2038 17.8398C90.4109 17.2461 90.989 16.7344 91.9929 16.7344C92.9499 16.7344 93.4734 17.2227 93.4734 18.0781L93.4734 18.1133C93.4734 18.7031 92.8523 18.7344 91.3132 18.8984C89.6179 19.0781 88.0007 19.5859 88.0007 21.5508C88.0007 23.2656 89.2546 24.1758 90.9187 24.1758ZM91.4538 22.6641C90.5984 22.6641 89.9812 22.2734 89.9812 21.5156C89.9812 20.7266 90.6687 20.3984 91.5906 20.2656C92.1296 20.1914 93.2117 20.0586 93.4773 19.8398L93.4773 20.8711C93.4773 21.8398 92.6921 22.6641 91.4538 22.6641ZM104.971 15.2734L103.006 15.2734L103.006 22.3125L99.5845 22.3125L99.5845 15.2734L97.6041 15.2734L97.6041 24L104.295 24L104.295 26.8086L106.307 26.8086L106.307 22.4648L104.971 22.4648L104.971 15.2734ZM109.982 21.2148L109.982 15.2734L108.002 15.2734L108.002 24L110.119 24L113.603 18.0508L113.603 24L115.592 24L115.592 15.2734L113.478 15.2734L109.982 21.2148ZM122.857 24L124.783 24L124.783 15.2734L120.994 15.2734C118.857 15.2734 117.533 16.3711 117.54 18.0469C117.533 19.1484 118.138 19.9844 119.177 20.4102L117.22 24L119.244 24L121.033 20.7148L122.857 20.7148L122.857 24ZM122.857 19.2148L120.927 19.2148C120.021 19.2148 119.521 18.7461 119.529 18.0898C119.521 17.4375 120.052 16.9414 120.994 16.9414L122.857 16.9414L122.857 19.2148Z" fill="#FF3F62" fill-opacity="1.000000" fill-rule="evenodd"/>
	</g>
	<rect id="Frame 7" rx="9.000000" width="135.000000" height="35.000000" transform="translate(0.500000 0.500000)" stroke="#FF3F62" stroke-opacity="1.000000" stroke-width="1.000000"/>
</svg>
