<svg width="128.000000" height="31.000000" viewBox="0 0 128 31" fill="none" xmlns="http://www.w3.org/2000/svg" xmlns:xlink="http://www.w3.org/1999/xlink">
	<desc>
			Created with Pixso.
	</desc>
	<defs/>
	<path id="ADVUP" d="M39.9004 25L41.3032 20.6899L48.127 20.6899L49.5298 25L53.8145 25L47.2954 6.09033L42.1475 6.09033L35.6157 25L39.9004 25ZM42.3188 17.5669L44.6484 10.4131L44.7944 10.4131L47.124 17.5669L42.3188 17.5669ZM62.7918 25C68.5554 25 72.0403 21.439 72.0403 15.5293C72.0403 9.63867 68.5554 6.09033 62.8489 6.09033L56.0886 6.09033L56.0886 25L62.7918 25ZM60.0877 21.5723L60.0877 9.51807L62.6331 9.51807C66.1814 9.51807 68.054 11.3271 68.054 15.5293C68.054 19.7441 66.1814 21.5723 62.6267 21.5723L60.0877 21.5723ZM77.351 6.09033L72.9076 6.09033L79.4394 25L84.5873 25L91.1064 6.09033L86.6757 6.09033L82.099 20.4551L81.9213 20.4551L77.351 6.09033Z" fill="#000000" fill-opacity="1.000000" fill-rule="evenodd"/>
	<path id="ADVUP" d="M105.06 6.09033L105.06 18.0303C105.06 20.1885 103.543 21.75 101.22 21.75C98.903 21.75 97.3796 20.1885 97.3796 18.0303L97.3796 6.09033L93.3805 6.09033L93.3805 18.373C93.3805 22.5054 96.5036 25.2666 101.22 25.2666C105.917 25.2666 109.059 22.5054 109.059 18.373L109.059 6.09033L105.06 6.09033ZM112.345 25L116.344 25L116.344 18.8682L119.702 18.8682C124.05 18.8682 126.583 16.272 126.583 12.5015C126.583 8.74365 124.101 6.09033 119.804 6.09033L112.345 6.09033L112.345 25ZM116.344 15.6626L116.344 9.35938L119.035 9.35938C121.346 9.35938 122.463 10.6162 122.463 12.5015C122.463 14.374 121.346 15.6626 119.055 15.6626L116.344 15.6626Z" fill="#FF3F62" fill-opacity="1.000000" fill-rule="evenodd"/>
	<circle id="Ellipse 1" cx="6.727295" cy="23.090912" r="4.727273" fill="#000000" fill-opacity="1.000000"/>
	<circle id="Ellipse 2" cx="17.363525" cy="25.454544" r="3.545455" fill="#000000" fill-opacity="1.000000"/>
	<circle id="Ellipse 3" cx="5.545410" cy="12.454544" r="3.545455" fill="#000000" fill-opacity="1.000000"/>
	<circle id="Ellipse 4" cx="11.454590" cy="6.545456" r="2.363636" fill="#000000" fill-opacity="1.000000"/>
	<circle id="Ellipse 5" cx="24.454590" cy="20.727264" r="2.363636" fill="#000000" fill-opacity="1.000000"/>
	<path id="Vector 2" d="M15.5909 18.3636L28 13.0455L19.7273 3L12.6364 15.4091L15.5909 18.3636Z" fill="#FF3F62" fill-opacity="1.000000" fill-rule="evenodd"/>
</svg>
