<svg width="22.750000" height="17.875000" viewBox="0 0 22.75 17.875" fill="none" xmlns="http://www.w3.org/2000/svg" xmlns:xlink="http://www.w3.org/1999/xlink">
	<desc>
			Created with Pixso.
	</desc>
	<defs/>
	<path id="Vector" d="M19.9062 0L2.84375 0C2.08978 0.000976562 1.36694 0.300781 0.833801 0.833984C0.300659 1.3667 0.000793457 2.08984 0 2.84375L0 15.0312C0.000793457 15.7852 0.300659 16.5083 0.833801 17.041C1.36694 17.5742 2.08978 17.874 2.84375 17.875L19.9062 17.875C20.6602 17.874 21.3831 17.5742 21.9162 17.041C22.4493 16.5083 22.7492 15.7852 22.75 15.0312L22.75 2.84375C22.7492 2.08984 22.4493 1.3667 21.9162 0.833984C21.3831 0.300781 20.6602 0.000976562 19.9062 0ZM19.1862 4.7041L11.8737 10.3916C11.7311 10.5024 11.5556 10.5625 11.375 10.5625C11.1944 10.5625 11.0189 10.5024 10.8763 10.3916L3.56384 4.7041C3.47791 4.63916 3.40576 4.55762 3.35153 4.46484C3.2973 4.37158 3.26212 4.26855 3.24799 4.16211C3.23386 4.05518 3.24109 3.94678 3.26926 3.84277C3.29742 3.73926 3.34595 3.6416 3.41205 3.55664C3.47812 3.47168 3.56046 3.40088 3.65421 3.34766C3.74799 3.29492 3.85132 3.26123 3.95825 3.24854C4.06516 3.23584 4.17352 3.24463 4.27704 3.27441C4.38052 3.3042 4.47711 3.354 4.56116 3.4209L11.375 8.7207L18.1888 3.4209C18.3592 3.29248 18.5734 3.23584 18.7851 3.26416C18.9967 3.29199 19.1888 3.40234 19.3199 3.5708C19.451 3.73926 19.5104 3.95264 19.4854 4.16455C19.4604 4.37695 19.3529 4.57031 19.1862 4.7041Z" fill="#FFFFFF" fill-opacity="1.000000" fill-rule="nonzero"/>
</svg>
